<svg width="380" height="171" viewBox="0 0 380 171" fill="none" xmlns="http://www.w3.org/2000/svg">
<g clip-path="url(#clip0_755_4190)">
<rect width="380" height="170.4" rx="22" fill="#FFA114"/>
<rect width="189" height="170.4" rx="22" fill="#FFF2DE"/>
<path d="M67.5133 38.333C66.2815 38.333 65.2073 38.1504 64.2906 37.7852C63.3811 37.4199 62.665 36.8971 62.1422 36.2168C61.6266 35.5365 61.3365 34.7308 61.2721 33.7998L61.2613 33.6279H64.3551L64.3766 33.7354C64.4339 34.1292 64.6021 34.473 64.8814 34.7666C65.1679 35.0602 65.5403 35.2894 65.9986 35.4541C66.4641 35.6117 66.9941 35.6904 67.5885 35.6904C68.1829 35.6904 68.6985 35.6081 69.1354 35.4434C69.5722 35.2715 69.9088 35.0352 70.1451 34.7344C70.3886 34.4336 70.5104 34.0863 70.5104 33.6924V33.6816C70.5104 33.166 70.3027 32.7578 69.8873 32.457C69.4791 32.1562 68.7952 31.9056 67.8355 31.7051L66.192 31.3828C64.6308 31.0605 63.4706 30.5306 62.7115 29.793C61.9596 29.0482 61.5836 28.0921 61.5836 26.9248V26.9141C61.5908 25.9616 61.845 25.1309 62.3463 24.4219C62.8548 23.7129 63.553 23.1615 64.441 22.7676C65.3362 22.3665 66.3531 22.166 67.4918 22.166C68.6949 22.166 69.7298 22.3594 70.5963 22.7461C71.4628 23.1257 72.1396 23.6556 72.6266 24.3359C73.1135 25.0091 73.3857 25.7897 73.443 26.6777L73.4537 26.8496H70.4029L70.3814 26.7207C70.3242 26.3268 70.1702 25.9902 69.9195 25.7109C69.6689 25.4245 69.3359 25.2025 68.9205 25.0449C68.5123 24.8874 68.0361 24.8086 67.4918 24.8086C66.9547 24.8086 66.4856 24.8874 66.0846 25.0449C65.6835 25.2025 65.372 25.4245 65.15 25.7109C64.9352 25.9902 64.8277 26.3197 64.8277 26.6992V26.71C64.8277 27.2041 65.0318 27.6051 65.44 27.9131C65.8554 28.221 66.5143 28.4645 67.4166 28.6436L69.0494 28.9766C70.1451 29.1986 71.0367 29.4993 71.7242 29.8789C72.4189 30.2585 72.9309 30.7347 73.2604 31.3076C73.5898 31.8805 73.7545 32.5716 73.7545 33.3809V33.3916C73.7545 34.4014 73.5038 35.2751 73.0025 36.0127C72.5084 36.7503 71.7923 37.3232 70.8541 37.7314C69.9231 38.1325 68.8095 38.333 67.5133 38.333ZM80.3047 38.1396C78.9512 38.1396 77.9629 37.8818 77.3398 37.3662C76.7168 36.8434 76.4053 35.9876 76.4053 34.7988V28.6973H74.708V26.334H76.4053V23.5195H79.5742V26.334H81.8408V28.6973H79.5742V34.2725C79.5742 34.8096 79.6924 35.1927 79.9287 35.4219C80.1722 35.6439 80.5446 35.7549 81.0459 35.7549C81.2178 35.7549 81.361 35.7513 81.4756 35.7441C81.5973 35.7298 81.7191 35.7191 81.8408 35.7119V38.0215C81.6546 38.0501 81.429 38.0752 81.1641 38.0967C80.9062 38.1253 80.6198 38.1396 80.3047 38.1396ZM87.4994 38.2471C86.64 38.2471 85.9131 38.0752 85.3187 37.7314C84.7243 37.3805 84.2732 36.8792 83.9652 36.2275C83.6645 35.5758 83.5141 34.7917 83.5141 33.875V26.334H86.6508V33.1875C86.6508 33.9824 86.8227 34.5911 87.1664 35.0137C87.5102 35.4362 88.0437 35.6475 88.767 35.6475C89.1322 35.6475 89.4581 35.5866 89.7445 35.4648C90.0381 35.3359 90.2852 35.1605 90.4857 34.9385C90.6863 34.7093 90.8367 34.4372 90.9369 34.1221C91.0443 33.7998 91.098 33.4453 91.098 33.0586V26.334H94.2348V38H91.098V36.1416H90.9691C90.7829 36.5713 90.5287 36.9437 90.2064 37.2588C89.8842 37.5739 89.4939 37.8174 89.0355 37.9893C88.5844 38.1611 88.0723 38.2471 87.4994 38.2471ZM100.645 38.2148C99.6714 38.2148 98.8299 37.9714 98.1209 37.4844C97.4119 36.9974 96.8641 36.3027 96.4773 35.4004C96.0978 34.498 95.908 33.4238 95.908 32.1777V32.1562C95.908 30.8958 96.0978 29.818 96.4773 28.9229C96.8569 28.0205 97.4012 27.3294 98.1102 26.8496C98.8191 26.3626 99.6642 26.1191 100.645 26.1191C101.19 26.1191 101.691 26.2087 102.149 26.3877C102.608 26.5596 103.009 26.8066 103.352 27.1289C103.703 27.4512 103.983 27.8379 104.19 28.2891H104.308V22.1016H107.445V38H104.308V36.0986H104.19C103.983 36.5426 103.707 36.9222 103.363 37.2373C103.026 37.5452 102.629 37.7852 102.171 37.957C101.712 38.1289 101.204 38.2148 100.645 38.2148ZM101.698 35.6152C102.235 35.6152 102.701 35.4756 103.095 35.1963C103.488 34.917 103.793 34.5231 104.008 34.0146C104.222 33.499 104.33 32.8867 104.33 32.1777V32.167C104.33 31.458 104.219 30.8457 103.997 30.3301C103.782 29.8145 103.478 29.417 103.084 29.1377C102.69 28.8584 102.228 28.7188 101.698 28.7188C101.168 28.7188 100.706 28.8584 100.312 29.1377C99.9256 29.417 99.6248 29.8145 99.41 30.3301C99.2023 30.8385 99.0984 31.4473 99.0984 32.1562V32.1777C99.0984 32.8867 99.2023 33.499 99.41 34.0146C99.6176 34.5303 99.9184 34.9277 100.312 35.207C100.706 35.4792 101.168 35.6152 101.698 35.6152ZM111.299 41.9746C111.056 41.9746 110.812 41.9639 110.569 41.9424C110.325 41.9281 110.11 41.9102 109.924 41.8887V39.5361C110.039 39.5576 110.175 39.5755 110.332 39.5898C110.497 39.6042 110.676 39.6113 110.869 39.6113C111.378 39.6113 111.782 39.5182 112.083 39.332C112.384 39.1458 112.595 38.8415 112.717 38.4189L112.835 38L108.732 26.334H112.18L114.887 36.2383L114.328 35.3252H115.08L114.532 36.2383L117.239 26.334H120.548L116.563 38.1074C116.24 39.0742 115.843 39.8405 115.37 40.4062C114.898 40.972 114.328 41.373 113.662 41.6094C113.003 41.8529 112.216 41.9746 111.299 41.9746Z" fill="#FF9900" fill-opacity="0.5"/>
<path d="M87.6841 118.188C82.6008 118.188 78.1529 117.26 74.3404 115.406C70.5279 113.573 67.5591 111.01 65.4341 107.719C63.33 104.406 62.2779 100.542 62.2779 96.125C62.2779 93.7917 62.4654 91.75 62.8404 90C63.2154 88.2292 63.6737 86.6562 64.2154 85.2812C64.7571 83.9062 65.2987 82.6146 65.8404 81.4062C66.4029 80.1979 66.8612 78.9896 67.2154 77.7812C67.5904 76.5521 67.7779 75.2083 67.7779 73.75C67.7779 72.9167 67.7362 72.125 67.6529 71.375C67.5696 70.6042 67.5279 69.9583 67.5279 69.4375C67.5279 68.5417 67.7779 67.8333 68.2779 67.3125C68.7779 66.7917 69.4341 66.5312 70.2466 66.5312C71.2466 66.5312 72.2675 66.8229 73.3091 67.4062C74.3508 67.9688 75.3091 68.8125 76.1841 69.9375C77.08 71.0625 77.8404 72.4688 78.4654 74.1562L77.1216 74.5C77.4758 73.8542 77.6946 73.2812 77.7779 72.7812C77.8821 72.2812 77.9341 71.7708 77.9341 71.25C77.9133 69.2708 77.5487 67.4062 76.8404 65.6562C76.1529 63.8854 75.2466 62.1771 74.1216 60.5312C72.9966 58.8854 71.7779 57.2708 70.4654 55.6875C70.0904 55.25 69.7987 54.7917 69.5904 54.3125C69.4029 53.8125 69.3091 53.3229 69.3091 52.8438C69.3091 51.6146 69.8196 50.6771 70.8404 50.0312C71.8821 49.3646 73.2571 49.0312 74.9654 49.0312C77.7362 49.0312 80.6737 49.375 83.7779 50.0625C86.8821 50.7292 89.9758 51.7708 93.0591 53.1875C96.1425 54.5833 99.0591 56.375 101.809 58.5625C104.58 60.75 107.038 63.3333 109.184 66.3125C111.33 69.2917 113.017 72.7083 114.247 76.5625C115.497 80.3958 116.122 84.6875 116.122 89.4375C116.122 93.7292 115.445 97.6458 114.09 101.188C112.757 104.708 110.83 107.729 108.309 110.25C105.788 112.792 102.788 114.75 99.3091 116.125C95.83 117.5 91.955 118.188 87.6841 118.188ZM88.4654 107.938C90.8612 107.938 92.8716 107.427 94.4966 106.406C96.1216 105.365 97.3508 103.979 98.1841 102.25C99.0175 100.521 99.4341 98.6042 99.4341 96.5C99.4341 94.3958 99.0383 92.3125 98.2466 90.25C97.455 88.1875 96.2883 86.3125 94.7466 84.625C93.2258 82.9167 91.3404 81.5625 89.0904 80.5625C88.8612 80.4583 88.6633 80.4688 88.4966 80.5938C88.33 80.6979 88.2779 80.8854 88.3404 81.1562C88.6321 83.4896 88.6529 85.6771 88.4029 87.7188C88.1737 89.7604 87.6633 91.4167 86.8716 92.6875C86.5175 91.75 86.1008 90.8958 85.6216 90.125C85.1633 89.3333 84.6008 88.6146 83.9341 87.9688C83.7258 87.8021 83.5279 87.7604 83.3404 87.8438C83.1737 87.9062 83.08 88.0521 83.0591 88.2812C82.955 89.2604 82.6737 90.1354 82.2154 90.9062C81.7779 91.6771 81.2987 92.4583 80.7779 93.25C80.2571 94.0208 79.7987 94.8854 79.4029 95.8438C79.0071 96.8021 78.8091 97.9479 78.8091 99.2812C78.8091 101.865 79.6946 103.958 81.4654 105.562C83.2362 107.146 85.5696 107.938 88.4654 107.938Z" fill="url(#paint0_linear_755_4190)"/>
<path d="M46.707 154.934C44.5977 154.934 42.7637 154.635 41.2051 154.037C39.6582 153.428 38.4453 152.555 37.5664 151.418C36.6992 150.282 36.2129 148.905 36.1074 147.287L36.0898 146.971H42.084L42.1191 147.147C42.2363 147.698 42.5059 148.178 42.9277 148.588C43.3613 148.987 43.9121 149.303 44.5801 149.537C45.248 149.76 45.9922 149.871 46.8125 149.871C47.668 149.871 48.4004 149.76 49.0098 149.537C49.6309 149.303 50.1113 148.987 50.4512 148.588C50.791 148.19 50.9609 147.727 50.9609 147.2V147.182C50.9609 146.467 50.6504 145.916 50.0293 145.53C49.4082 145.131 48.3535 144.791 46.8652 144.51L44.2637 144C41.7559 143.532 39.8457 142.688 38.5332 141.469C37.2324 140.239 36.582 138.651 36.582 136.705V136.688C36.582 135.059 37.0156 133.647 37.8828 132.452C38.75 131.245 39.9395 130.313 41.4512 129.657C42.9746 128.989 44.7031 128.655 46.6367 128.655C48.7578 128.655 50.5625 128.971 52.0508 129.604C53.5391 130.225 54.6875 131.104 55.4961 132.241C56.3164 133.377 56.7617 134.713 56.832 136.248L56.8496 136.618H50.8555L50.8379 136.424C50.7676 135.862 50.5508 135.381 50.1875 134.983C49.8242 134.584 49.3438 134.274 48.7461 134.051C48.1484 133.828 47.4629 133.717 46.6895 133.717C45.9043 133.717 45.2363 133.828 44.6855 134.051C44.1348 134.274 43.7129 134.578 43.4199 134.965C43.1387 135.34 42.998 135.768 42.998 136.248V136.266C42.998 136.946 43.3086 137.485 43.9297 137.883C44.5508 138.282 45.541 138.61 46.9004 138.868L49.502 139.36C51.3066 139.7 52.7891 140.18 53.9492 140.801C55.1094 141.422 55.9707 142.213 56.5332 143.174C57.0957 144.123 57.377 145.278 57.377 146.637V146.655C57.377 148.342 56.9551 149.807 56.1113 151.049C55.2676 152.291 54.0488 153.252 52.4551 153.932C50.8613 154.6 48.9453 154.934 46.707 154.934ZM67.8578 154.881C65.5492 154.881 63.8441 154.424 62.7426 153.51C61.6527 152.584 61.1078 151.043 61.1078 148.887V139.905H58.5063V135.334H61.1078V130.922H67.3656V135.334H70.7934V139.905H67.3656V148.043C67.3656 148.864 67.5531 149.45 67.9281 149.801C68.3031 150.141 68.8656 150.311 69.6156 150.311C69.8734 150.311 70.0902 150.305 70.266 150.293C70.4418 150.27 70.6176 150.246 70.7934 150.223V154.653C70.4535 154.711 70.0434 154.764 69.5629 154.811C69.0824 154.858 68.5141 154.881 67.8578 154.881ZM72.9598 154.477V135.334H79.2V138.727H79.323C79.5926 137.508 80.0906 136.571 80.8172 135.914C81.5555 135.258 82.493 134.93 83.6297 134.93C83.9227 134.93 84.2039 134.953 84.4734 135C84.7547 135.036 85.0125 135.094 85.2469 135.176V140.52C84.9891 140.403 84.6844 140.315 84.3328 140.256C83.993 140.198 83.6355 140.168 83.2605 140.168C82.3816 140.168 81.6375 140.327 81.0281 140.643C80.4305 140.959 79.9734 141.428 79.657 142.049C79.3523 142.659 79.2 143.414 79.2 144.317V154.477H72.9598ZM95.3762 154.881C93.3605 154.881 91.6262 154.483 90.173 153.686C88.7199 152.877 87.6008 151.729 86.8156 150.241C86.0422 148.752 85.6555 146.977 85.6555 144.914V144.897C85.6555 142.846 86.0422 141.077 86.8156 139.588C87.6008 138.1 88.7023 136.952 90.1203 136.143C91.55 135.334 93.2316 134.93 95.1652 134.93C97.0988 134.93 98.7746 135.328 100.193 136.125C101.611 136.911 102.706 138.024 103.48 139.465C104.253 140.895 104.64 142.577 104.64 144.51V146.338H88.7141V142.647H101.722L98.8215 146.11V143.702C98.8215 142.776 98.675 141.991 98.382 141.346C98.0891 140.69 97.6789 140.198 97.1516 139.87C96.6242 139.53 96.009 139.36 95.3059 139.36C94.6027 139.36 93.9816 139.53 93.4426 139.87C92.9152 140.209 92.5051 140.707 92.2121 141.364C91.9191 142.008 91.7727 142.787 91.7727 143.702V146.127C91.7727 147.03 91.9191 147.803 92.2121 148.448C92.5168 149.092 92.9445 149.59 93.4953 149.942C94.0578 150.282 94.7258 150.452 95.4992 150.452C96.1672 150.452 96.7355 150.346 97.2043 150.135C97.673 149.924 98.0422 149.666 98.3117 149.362C98.593 149.057 98.7805 148.77 98.8742 148.5L98.8918 148.43H104.517L104.464 148.641C104.323 149.309 104.054 150.006 103.655 150.733C103.257 151.448 102.7 152.121 101.986 152.754C101.282 153.387 100.386 153.903 99.2961 154.301C98.218 154.688 96.9113 154.881 95.3762 154.881ZM112.396 154.741C111.119 154.741 109.994 154.495 109.021 154.002C108.048 153.498 107.287 152.813 106.736 151.946C106.197 151.067 105.927 150.071 105.927 148.957V148.94C105.927 147.733 106.226 146.707 106.824 145.864C107.433 145.02 108.312 144.358 109.461 143.877C110.609 143.385 112.004 143.086 113.644 142.981L121.308 142.489V146.11L114.646 146.567C113.779 146.614 113.129 146.813 112.695 147.164C112.261 147.504 112.045 147.961 112.045 148.536V148.553C112.045 149.151 112.273 149.614 112.73 149.942C113.199 150.258 113.814 150.416 114.576 150.416C115.244 150.416 115.83 150.299 116.334 150.065C116.849 149.819 117.254 149.485 117.546 149.063C117.851 148.629 118.004 148.149 118.004 147.621V141.75C118.004 141.059 117.781 140.514 117.336 140.116C116.89 139.705 116.24 139.5 115.384 139.5C114.541 139.5 113.879 139.67 113.398 140.01C112.918 140.35 112.625 140.766 112.519 141.258L112.484 141.434H106.859L106.877 141.205C106.982 139.952 107.392 138.856 108.107 137.918C108.822 136.981 109.818 136.248 111.095 135.721C112.384 135.194 113.92 134.93 115.701 134.93C117.412 134.93 118.906 135.2 120.183 135.739C121.472 136.278 122.468 137.034 123.171 138.006C123.886 138.979 124.244 140.11 124.244 141.399V154.477H118.004V151.77H117.88C117.517 152.391 117.066 152.924 116.527 153.37C115.988 153.815 115.373 154.155 114.681 154.389C113.99 154.623 113.228 154.741 112.396 154.741ZM126.955 154.477V129.112H133.178V154.477H126.955ZM138.961 154.477L133.758 146.373L137.643 141.469L146.15 154.477H138.961ZM132.598 149.309V142.594H133.301L138.785 135.334H145.729L137.027 145.916H135.41L132.598 149.309Z" fill="#FF9900"/>
<ellipse cx="291" cy="85.3389" rx="66" ry="66.3389" fill="#FFEFDE"/>
<path d="M348.25 85.3389C348.25 117.187 322.576 142.928 291 142.928C259.424 142.928 233.75 117.187 233.75 85.3389C233.75 53.4911 259.424 27.75 291 27.75C322.576 27.75 348.25 53.4911 348.25 85.3389Z" stroke="#FF9900" stroke-opacity="0.24" stroke-width="17.5"/>
<path d="M361.848 152.993C361.845 153.13 361.817 153.255 361.766 153.368C361.716 153.481 361.637 153.591 361.532 153.696L355.661 159.38C355.493 159.548 355.286 159.632 355.04 159.632C354.876 159.632 354.727 159.593 354.595 159.515C354.458 159.437 354.35 159.331 354.272 159.198C354.19 159.065 354.149 158.917 354.149 158.753C354.149 158.511 354.241 158.298 354.425 158.114L359.733 152.999L354.425 147.878C354.241 147.69 354.149 147.478 354.149 147.239C354.149 147.071 354.19 146.921 354.272 146.788C354.35 146.655 354.458 146.55 354.595 146.472C354.727 146.39 354.876 146.349 355.04 146.349C355.286 146.349 355.493 146.435 355.661 146.606L361.532 152.29C361.641 152.396 361.721 152.505 361.772 152.618C361.823 152.735 361.848 152.86 361.848 152.993Z" fill="#FFE6DE"/>
<path d="M291.365 117V106.189H260.032V93.0498C261.614 90.4131 263.211 87.791 264.822 85.1836C266.463 82.5469 268.089 79.9102 269.7 77.2734C271.312 74.6367 272.923 72 274.534 69.3633C276.146 66.7266 277.757 64.1045 279.368 61.4971C280.979 58.8604 282.576 56.2236 284.158 53.5869H306.658V93.6211H314.7V106.189H306.658V117H291.365ZM273.523 94.1924H291.805V64.7051H291.453C290.252 66.6387 289.051 68.5723 287.85 70.5059C286.678 72.4395 285.491 74.373 284.29 76.3066C283.118 78.2402 281.917 80.1885 280.687 82.1514C279.485 84.085 278.284 86.0186 277.083 87.9521C275.911 89.8857 274.725 91.8193 273.523 93.7529V94.1924Z" fill="#FF9900"/>
</g>
<defs>
<linearGradient id="paint0_linear_755_4190" x1="89" y1="47" x2="89.2154" y2="106.477" gradientUnits="userSpaceOnUse">
<stop stop-color="#FF9900"/>
<stop offset="1" stop-color="#FFA929"/>
</linearGradient>
<clipPath id="clip0_755_4190">
<rect width="380" height="170.4" rx="22" fill="white"/>
</clipPath>
</defs>
</svg>
