<svg width="380" height="171" viewBox="0 0 380 171" fill="none" xmlns="http://www.w3.org/2000/svg">
<g clip-path="url(#clip0_852_5295)">
<rect width="380" height="170.4" rx="22" fill="#FFB095"/>
<rect width="189" height="170.4" rx="22" fill="#FFD4BA"/>
<path d="M67.4094 36.333C66.1776 36.333 65.1034 36.1504 64.1867 35.7852C63.2772 35.4199 62.5611 34.8971 62.0383 34.2168C61.5227 33.5365 61.2326 32.7308 61.1682 31.7998L61.1574 31.6279H64.2512L64.2727 31.7354C64.3299 32.1292 64.4982 32.473 64.7775 32.7666C65.064 33.0602 65.4364 33.2894 65.8947 33.4541C66.3602 33.6117 66.8902 33.6904 67.4846 33.6904C68.079 33.6904 68.5946 33.6081 69.0314 33.4434C69.4683 33.2715 69.8049 33.0352 70.0412 32.7344C70.2847 32.4336 70.4064 32.0863 70.4064 31.6924V31.6816C70.4064 31.166 70.1988 30.7578 69.7834 30.457C69.3752 30.1562 68.6913 29.9056 67.7316 29.7051L66.0881 29.3828C64.5269 29.0605 63.3667 28.5306 62.6076 27.793C61.8557 27.0482 61.4797 26.0921 61.4797 24.9248V24.9141C61.4868 23.9616 61.7411 23.1309 62.2424 22.4219C62.7508 21.7129 63.4491 21.1615 64.3371 20.7676C65.2323 20.3665 66.2492 20.166 67.3879 20.166C68.591 20.166 69.6258 20.3594 70.4924 20.7461C71.3589 21.1257 72.0357 21.6556 72.5227 22.3359C73.0096 23.0091 73.2818 23.7897 73.3391 24.6777L73.3498 24.8496H70.299L70.2775 24.7207C70.2202 24.3268 70.0663 23.9902 69.8156 23.7109C69.565 23.4245 69.232 23.2025 68.8166 23.0449C68.4084 22.8874 67.9322 22.8086 67.3879 22.8086C66.8508 22.8086 66.3817 22.8874 65.9807 23.0449C65.5796 23.2025 65.2681 23.4245 65.0461 23.7109C64.8312 23.9902 64.7238 24.3197 64.7238 24.6992V24.71C64.7238 25.2041 64.9279 25.6051 65.3361 25.9131C65.7515 26.221 66.4104 26.4645 67.3127 26.6436L68.9455 26.9766C70.0412 27.1986 70.9328 27.4993 71.6203 27.8789C72.315 28.2585 72.827 28.7347 73.1564 29.3076C73.4859 29.8805 73.6506 30.5716 73.6506 31.3809V31.3916C73.6506 32.4014 73.3999 33.2751 72.8986 34.0127C72.4045 34.7503 71.6883 35.3232 70.7502 35.7314C69.8192 36.1325 68.7056 36.333 67.4094 36.333ZM80.2008 36.1396C78.8473 36.1396 77.859 35.8818 77.2359 35.3662C76.6129 34.8434 76.3014 33.9876 76.3014 32.7988V26.6973H74.6041V24.334H76.3014V21.5195H79.4703V24.334H81.7369V26.6973H79.4703V32.2725C79.4703 32.8096 79.5885 33.1927 79.8248 33.4219C80.0683 33.6439 80.4407 33.7549 80.942 33.7549C81.1139 33.7549 81.2571 33.7513 81.3717 33.7441C81.4934 33.7298 81.6152 33.7191 81.7369 33.7119V36.0215C81.5507 36.0501 81.3251 36.0752 81.0602 36.0967C80.8023 36.1253 80.5159 36.1396 80.2008 36.1396ZM87.3955 36.2471C86.5361 36.2471 85.8092 36.0752 85.2148 35.7314C84.6204 35.3805 84.1693 34.8792 83.8613 34.2275C83.5605 33.5758 83.4102 32.7917 83.4102 31.875V24.334H86.5469V31.1875C86.5469 31.9824 86.7188 32.5911 87.0625 33.0137C87.4062 33.4362 87.9398 33.6475 88.6631 33.6475C89.0283 33.6475 89.3542 33.5866 89.6406 33.4648C89.9342 33.3359 90.1813 33.1605 90.3818 32.9385C90.5824 32.7093 90.7327 32.4372 90.833 32.1221C90.9404 31.7998 90.9941 31.4453 90.9941 31.0586V24.334H94.1309V36H90.9941V34.1416H90.8652C90.679 34.5713 90.4248 34.9437 90.1025 35.2588C89.7803 35.5739 89.39 35.8174 88.9316 35.9893C88.4805 36.1611 87.9684 36.2471 87.3955 36.2471ZM100.541 36.2148C99.5674 36.2148 98.726 35.9714 98.017 35.4844C97.308 34.9974 96.7602 34.3027 96.3734 33.4004C95.9939 32.498 95.8041 31.4238 95.8041 30.1777V30.1562C95.8041 28.8958 95.9939 27.818 96.3734 26.9229C96.753 26.0205 97.2973 25.3294 98.0062 24.8496C98.7152 24.3626 99.5603 24.1191 100.541 24.1191C101.086 24.1191 101.587 24.2087 102.045 24.3877C102.504 24.5596 102.905 24.8066 103.248 25.1289C103.599 25.4512 103.879 25.8379 104.086 26.2891H104.204V20.1016H107.341V36H104.204V34.0986H104.086C103.879 34.5426 103.603 34.9222 103.259 35.2373C102.923 35.5452 102.525 35.7852 102.067 35.957C101.608 36.1289 101.1 36.2148 100.541 36.2148ZM101.594 33.6152C102.131 33.6152 102.597 33.4756 102.991 33.1963C103.385 32.917 103.689 32.5231 103.904 32.0146C104.119 31.499 104.226 30.8867 104.226 30.1777V30.167C104.226 29.458 104.115 28.8457 103.893 28.3301C103.678 27.8145 103.374 27.417 102.98 27.1377C102.586 26.8584 102.124 26.7188 101.594 26.7188C101.064 26.7188 100.602 26.8584 100.208 27.1377C99.8217 27.417 99.5209 27.8145 99.3061 28.3301C99.0984 28.8385 98.9945 29.4473 98.9945 30.1562V30.1777C98.9945 30.8867 99.0984 31.499 99.3061 32.0146C99.5137 32.5303 99.8145 32.9277 100.208 33.207C100.602 33.4792 101.064 33.6152 101.594 33.6152ZM111.195 39.9746C110.952 39.9746 110.708 39.9639 110.465 39.9424C110.221 39.9281 110.006 39.9102 109.82 39.8887V37.5361C109.935 37.5576 110.071 37.5755 110.228 37.5898C110.393 37.6042 110.572 37.6113 110.765 37.6113C111.274 37.6113 111.679 37.5182 111.979 37.332C112.28 37.1458 112.491 36.8415 112.613 36.4189L112.731 36L108.628 24.334H112.076L114.783 34.2383L114.224 33.3252H114.976L114.429 34.2383L117.136 24.334H120.444L116.459 36.1074C116.137 37.0742 115.739 37.8405 115.266 38.4062C114.794 38.972 114.224 39.373 113.558 39.6094C112.9 39.8529 112.112 39.9746 111.195 39.9746Z" fill="#FF785A" fill-opacity="0.5"/>
<path d="M87.6841 118.188C82.6008 118.188 78.1529 117.26 74.3404 115.406C70.5279 113.573 67.5591 111.01 65.4341 107.719C63.33 104.406 62.2779 100.542 62.2779 96.125C62.2779 93.7917 62.4654 91.75 62.8404 90C63.2154 88.2292 63.6737 86.6562 64.2154 85.2812C64.7571 83.9062 65.2987 82.6146 65.8404 81.4062C66.4029 80.1979 66.8612 78.9896 67.2154 77.7812C67.5904 76.5521 67.7779 75.2083 67.7779 73.75C67.7779 72.9167 67.7362 72.125 67.6529 71.375C67.5696 70.6042 67.5279 69.9583 67.5279 69.4375C67.5279 68.5417 67.7779 67.8333 68.2779 67.3125C68.7779 66.7917 69.4341 66.5312 70.2466 66.5312C71.2466 66.5312 72.2675 66.8229 73.3091 67.4062C74.3508 67.9688 75.3091 68.8125 76.1841 69.9375C77.08 71.0625 77.8404 72.4688 78.4654 74.1562L77.1216 74.5C77.4758 73.8542 77.6946 73.2812 77.7779 72.7812C77.8821 72.2812 77.9341 71.7708 77.9341 71.25C77.9133 69.2708 77.5487 67.4062 76.8404 65.6562C76.1529 63.8854 75.2466 62.1771 74.1216 60.5312C72.9966 58.8854 71.7779 57.2708 70.4654 55.6875C70.0904 55.25 69.7987 54.7917 69.5904 54.3125C69.4029 53.8125 69.3091 53.3229 69.3091 52.8438C69.3091 51.6146 69.8196 50.6771 70.8404 50.0312C71.8821 49.3646 73.2571 49.0312 74.9654 49.0312C77.7362 49.0312 80.6737 49.375 83.7779 50.0625C86.8821 50.7292 89.9758 51.7708 93.0591 53.1875C96.1425 54.5833 99.0591 56.375 101.809 58.5625C104.58 60.75 107.038 63.3333 109.184 66.3125C111.33 69.2917 113.017 72.7083 114.247 76.5625C115.497 80.3958 116.122 84.6875 116.122 89.4375C116.122 93.7292 115.445 97.6458 114.09 101.188C112.757 104.708 110.83 107.729 108.309 110.25C105.788 112.792 102.788 114.75 99.3091 116.125C95.83 117.5 91.955 118.188 87.6841 118.188ZM88.4654 107.938C90.8612 107.938 92.8716 107.427 94.4966 106.406C96.1216 105.365 97.3508 103.979 98.1841 102.25C99.0175 100.521 99.4341 98.6042 99.4341 96.5C99.4341 94.3958 99.0383 92.3125 98.2466 90.25C97.455 88.1875 96.2883 86.3125 94.7466 84.625C93.2258 82.9167 91.3404 81.5625 89.0904 80.5625C88.8612 80.4583 88.6633 80.4688 88.4966 80.5938C88.33 80.6979 88.2779 80.8854 88.3404 81.1562C88.6321 83.4896 88.6529 85.6771 88.4029 87.7188C88.1737 89.7604 87.6633 91.4167 86.8716 92.6875C86.5175 91.75 86.1008 90.8958 85.6216 90.125C85.1633 89.3333 84.6008 88.6146 83.9341 87.9688C83.7258 87.8021 83.5279 87.7604 83.3404 87.8438C83.1737 87.9062 83.08 88.0521 83.0591 88.2812C82.955 89.2604 82.6737 90.1354 82.2154 90.9062C81.7779 91.6771 81.2987 92.4583 80.7779 93.25C80.2571 94.0208 79.7987 94.8854 79.4029 95.8438C79.0071 96.8021 78.8091 97.9479 78.8091 99.2812C78.8091 101.865 79.6946 103.958 81.4654 105.562C83.2362 107.146 85.5696 107.938 88.4654 107.938Z" fill="#FF6543"/>
<path d="M46.707 154.934C44.5977 154.934 42.7637 154.635 41.2051 154.037C39.6582 153.428 38.4453 152.555 37.5664 151.418C36.6992 150.281 36.2129 148.904 36.1074 147.287L36.0898 146.971H42.084L42.1191 147.146C42.2363 147.697 42.5059 148.178 42.9277 148.588C43.3613 148.986 43.9121 149.303 44.5801 149.537C45.248 149.76 45.9922 149.871 46.8125 149.871C47.668 149.871 48.4004 149.76 49.0098 149.537C49.6309 149.303 50.1113 148.986 50.4512 148.588C50.791 148.189 50.9609 147.727 50.9609 147.199V147.182C50.9609 146.467 50.6504 145.916 50.0293 145.529C49.4082 145.131 48.3535 144.791 46.8652 144.51L44.2637 144C41.7559 143.531 39.8457 142.688 38.5332 141.469C37.2324 140.238 36.582 138.65 36.582 136.705V136.688C36.582 135.059 37.0156 133.646 37.8828 132.451C38.75 131.244 39.9395 130.312 41.4512 129.656C42.9746 128.988 44.7031 128.654 46.6367 128.654C48.7578 128.654 50.5625 128.971 52.0508 129.604C53.5391 130.225 54.6875 131.104 55.4961 132.24C56.3164 133.377 56.7617 134.713 56.832 136.248L56.8496 136.617H50.8555L50.8379 136.424C50.7676 135.861 50.5508 135.381 50.1875 134.982C49.8242 134.584 49.3438 134.273 48.7461 134.051C48.1484 133.828 47.4629 133.717 46.6895 133.717C45.9043 133.717 45.2363 133.828 44.6855 134.051C44.1348 134.273 43.7129 134.578 43.4199 134.965C43.1387 135.34 42.998 135.768 42.998 136.248V136.266C42.998 136.945 43.3086 137.484 43.9297 137.883C44.5508 138.281 45.541 138.609 46.9004 138.867L49.502 139.359C51.3066 139.699 52.7891 140.18 53.9492 140.801C55.1094 141.422 55.9707 142.213 56.5332 143.174C57.0957 144.123 57.377 145.277 57.377 146.637V146.654C57.377 148.342 56.9551 149.807 56.1113 151.049C55.2676 152.291 54.0488 153.252 52.4551 153.932C50.8613 154.6 48.9453 154.934 46.707 154.934ZM67.8578 154.881C65.5492 154.881 63.8441 154.424 62.7426 153.51C61.6527 152.584 61.1078 151.043 61.1078 148.887V139.904H58.5063V135.334H61.1078V130.922H67.3656V135.334H70.7934V139.904H67.3656V148.043C67.3656 148.863 67.5531 149.449 67.9281 149.801C68.3031 150.141 68.8656 150.311 69.6156 150.311C69.8734 150.311 70.0902 150.305 70.266 150.293C70.4418 150.27 70.6176 150.246 70.7934 150.223V154.652C70.4535 154.711 70.0434 154.764 69.5629 154.811C69.0824 154.857 68.5141 154.881 67.8578 154.881ZM72.9598 154.477V135.334H79.2V138.727H79.323C79.5926 137.508 80.0906 136.57 80.8172 135.914C81.5555 135.258 82.493 134.93 83.6297 134.93C83.9227 134.93 84.2039 134.953 84.4734 135C84.7547 135.035 85.0125 135.094 85.2469 135.176V140.52C84.9891 140.402 84.6844 140.314 84.3328 140.256C83.993 140.197 83.6355 140.168 83.2605 140.168C82.3816 140.168 81.6375 140.326 81.0281 140.643C80.4305 140.959 79.9734 141.428 79.657 142.049C79.3523 142.658 79.2 143.414 79.2 144.316V154.477H72.9598ZM95.3762 154.881C93.3605 154.881 91.6262 154.482 90.173 153.686C88.7199 152.877 87.6008 151.729 86.8156 150.24C86.0422 148.752 85.6555 146.977 85.6555 144.914V144.896C85.6555 142.846 86.0422 141.076 86.8156 139.588C87.6008 138.1 88.7023 136.951 90.1203 136.143C91.55 135.334 93.2316 134.93 95.1652 134.93C97.0988 134.93 98.7746 135.328 100.193 136.125C101.611 136.91 102.706 138.023 103.48 139.465C104.253 140.895 104.64 142.576 104.64 144.51V146.338H88.7141V142.646H101.722L98.8215 146.109V143.701C98.8215 142.775 98.675 141.99 98.382 141.346C98.0891 140.689 97.6789 140.197 97.1516 139.869C96.6242 139.529 96.009 139.359 95.3059 139.359C94.6027 139.359 93.9816 139.529 93.4426 139.869C92.9152 140.209 92.5051 140.707 92.2121 141.363C91.9191 142.008 91.7727 142.787 91.7727 143.701V146.127C91.7727 147.029 91.9191 147.803 92.2121 148.447C92.5168 149.092 92.9445 149.59 93.4953 149.941C94.0578 150.281 94.7258 150.451 95.4992 150.451C96.1672 150.451 96.7355 150.346 97.2043 150.135C97.673 149.924 98.0422 149.666 98.3117 149.361C98.593 149.057 98.7805 148.77 98.8742 148.5L98.8918 148.43H104.517L104.464 148.641C104.323 149.309 104.054 150.006 103.655 150.732C103.257 151.447 102.7 152.121 101.986 152.754C101.282 153.387 100.386 153.902 99.2961 154.301C98.218 154.688 96.9113 154.881 95.3762 154.881ZM112.396 154.74C111.119 154.74 109.994 154.494 109.021 154.002C108.048 153.498 107.287 152.812 106.736 151.945C106.197 151.066 105.927 150.07 105.927 148.957V148.939C105.927 147.732 106.226 146.707 106.824 145.863C107.433 145.02 108.312 144.357 109.461 143.877C110.609 143.385 112.004 143.086 113.644 142.98L121.308 142.488V146.109L114.646 146.566C113.779 146.613 113.129 146.812 112.695 147.164C112.261 147.504 112.045 147.961 112.045 148.535V148.553C112.045 149.15 112.273 149.613 112.73 149.941C113.199 150.258 113.814 150.416 114.576 150.416C115.244 150.416 115.83 150.299 116.334 150.064C116.849 149.818 117.254 149.484 117.546 149.062C117.851 148.629 118.004 148.148 118.004 147.621V141.75C118.004 141.059 117.781 140.514 117.336 140.115C116.89 139.705 116.24 139.5 115.384 139.5C114.541 139.5 113.879 139.67 113.398 140.01C112.918 140.35 112.625 140.766 112.519 141.258L112.484 141.434H106.859L106.877 141.205C106.982 139.951 107.392 138.855 108.107 137.918C108.822 136.98 109.818 136.248 111.095 135.721C112.384 135.193 113.92 134.93 115.701 134.93C117.412 134.93 118.906 135.199 120.183 135.738C121.472 136.277 122.468 137.033 123.171 138.006C123.886 138.979 124.244 140.109 124.244 141.398V154.477H118.004V151.77H117.88C117.517 152.391 117.066 152.924 116.527 153.369C115.988 153.814 115.373 154.154 114.681 154.389C113.99 154.623 113.228 154.74 112.396 154.74ZM126.955 154.477V129.111H133.178V154.477H126.955ZM138.961 154.477L133.758 146.373L137.643 141.469L146.15 154.477H138.961ZM132.598 149.309V142.594H133.301L138.785 135.334H145.729L137.027 145.916H135.41L132.598 149.309Z" fill="#FF785A"/>
<ellipse cx="291" cy="85.3389" rx="66" ry="66.3389" fill="#FFE6DE"/>
<path d="M348.25 85.3389C348.25 117.187 322.576 142.928 291 142.928C259.424 142.928 233.75 117.187 233.75 85.3389C233.75 53.4911 259.424 27.75 291 27.75C322.576 27.75 348.25 53.4911 348.25 85.3389Z" stroke="#FF785A" stroke-opacity="0.7" stroke-width="17.5"/>
<path d="M293.365 117V106.189H262.032V93.0498C263.614 90.4131 265.211 87.791 266.822 85.1836C268.463 82.5469 270.089 79.9102 271.7 77.2734C273.312 74.6367 274.923 72 276.534 69.3633C278.146 66.7266 279.757 64.1045 281.368 61.4971C282.979 58.8604 284.576 56.2236 286.158 53.5869H308.658V93.6211H316.7V106.189H308.658V117H293.365ZM275.523 94.1924H293.805V64.7051H293.453C292.252 66.6387 291.051 68.5723 289.85 70.5059C288.678 72.4395 287.491 74.373 286.29 76.3066C285.118 78.2402 283.917 80.1885 282.687 82.1514C281.485 84.085 280.284 86.0186 279.083 87.9521C277.911 89.8857 276.725 91.8193 275.523 93.7529V94.1924Z" fill="#FF785A"/>
</g>
<defs>
<clipPath id="clip0_852_5295">
<rect width="380" height="170.4" rx="22" fill="white"/>
</clipPath>
</defs>
</svg>
