<svg width="380" height="171" viewBox="0 0 380 171" fill="none" xmlns="http://www.w3.org/2000/svg">
<g clip-path="url(#clip0_846_5230)">
<rect width="380" height="170.4" rx="22" fill="#FFB095"/>
<rect width="189" height="170.4" rx="22" fill="#FFD4BA"/>
<path d="M43.5684 36V20.499H46.3398L54.5576 32.1113L52.0547 30.4893H53.5371V20.499H56.7061V36H53.9453L45.7168 24.334L48.2197 25.9668H46.7373V36H43.5684ZM64.3842 36.2471C63.2025 36.2471 62.182 36.0036 61.3227 35.5166C60.4704 35.0225 59.8152 34.3242 59.3568 33.4219C58.8985 32.5124 58.6693 31.4346 58.6693 30.1885V30.1777C58.6693 28.9388 58.8985 27.8646 59.3568 26.9551C59.8152 26.0456 60.4633 25.3438 61.3012 24.8496C62.1391 24.3483 63.1238 24.0977 64.2553 24.0977C65.3939 24.0977 66.3751 24.3411 67.1986 24.8281C68.0294 25.3079 68.6703 25.9883 69.1215 26.8691C69.5727 27.7428 69.7982 28.7669 69.7982 29.9414V30.9189H60.2162V28.9424H68.3051L66.8227 30.8008V29.5654C66.8227 28.8779 66.7152 28.3014 66.5004 27.8359C66.2927 27.3704 65.9991 27.0231 65.6195 26.7939C65.2471 26.5576 64.8103 26.4395 64.309 26.4395C63.8148 26.4395 63.3744 26.5612 62.9877 26.8047C62.6081 27.041 62.3074 27.3955 62.0854 27.8682C61.8705 28.3337 61.7631 28.8994 61.7631 29.5654V30.8115C61.7631 31.4561 61.8705 32.0111 62.0854 32.4766C62.3074 32.9349 62.6189 33.2858 63.0199 33.5293C63.421 33.7728 63.8972 33.8945 64.4486 33.8945C64.8926 33.8945 65.2722 33.8301 65.5873 33.7012C65.9096 33.5651 66.1674 33.4004 66.3607 33.207C66.5613 33.0065 66.6973 32.8132 66.7689 32.627L66.8012 32.5625H69.7016L69.6693 32.6807C69.5834 33.0817 69.4151 33.4899 69.1645 33.9053C68.921 34.3206 68.5844 34.7074 68.1547 35.0654C67.7322 35.4163 67.2094 35.7028 66.5863 35.9248C65.9633 36.1396 65.2292 36.2471 64.3842 36.2471ZM73.577 36L70.4725 24.334H73.6307L75.3816 32.8955H75.5105L77.5623 24.334H80.5594L82.6326 32.8955H82.7615L84.5125 24.334H87.6063L84.5125 36H81.1824L79.077 27.8037H78.948L76.8641 36H73.577ZM95.4107 36V33.583H99.8688C100.8 33.583 101.512 33.3932 102.006 33.0137C102.501 32.6341 102.748 32.0827 102.748 31.3594V31.3379C102.748 30.8581 102.633 30.4535 102.404 30.124C102.175 29.7946 101.838 29.5475 101.394 29.3828C100.957 29.2181 100.413 29.1357 99.7613 29.1357H95.4107V26.9658H99.3746C100.27 26.9658 100.954 26.7868 101.426 26.4287C101.899 26.0635 102.135 25.555 102.135 24.9033V24.8818C102.135 24.2588 101.924 23.7754 101.502 23.4316C101.079 23.0807 100.485 22.9053 99.7184 22.9053H95.4107V20.499H100.546C101.541 20.499 102.393 20.6566 103.102 20.9717C103.818 21.2868 104.366 21.7344 104.746 22.3145C105.132 22.8945 105.326 23.582 105.326 24.377V24.3984C105.326 24.957 105.197 25.4762 104.939 25.9561C104.688 26.4287 104.345 26.8262 103.908 27.1484C103.471 27.4635 102.977 27.6605 102.425 27.7393V27.8574C103.127 27.9076 103.75 28.1009 104.295 28.4375C104.846 28.7741 105.276 29.2109 105.584 29.748C105.899 30.2852 106.056 30.8903 106.056 31.5635V31.585C106.056 32.4873 105.838 33.2679 105.401 33.9268C104.971 34.5856 104.355 35.0977 103.553 35.4629C102.758 35.821 101.806 36 100.696 36H95.4107ZM93.7887 36V20.499H97.0328V36H93.7887ZM112.95 36.2471C111.769 36.2471 110.748 36.0036 109.889 35.5166C109.036 35.0225 108.381 34.3242 107.923 33.4219C107.465 32.5124 107.235 31.4346 107.235 30.1885V30.1777C107.235 28.9388 107.465 27.8646 107.923 26.9551C108.381 26.0456 109.029 25.3438 109.867 24.8496C110.705 24.3483 111.69 24.0977 112.821 24.0977C113.96 24.0977 114.941 24.3411 115.765 24.8281C116.595 25.3079 117.236 25.9883 117.688 26.8691C118.139 27.7428 118.364 28.7669 118.364 29.9414V30.9189H108.782V28.9424H116.871L115.389 30.8008V29.5654C115.389 28.8779 115.281 28.3014 115.066 27.8359C114.859 27.3704 114.565 27.0231 114.186 26.7939C113.813 26.5576 113.376 26.4395 112.875 26.4395C112.381 26.4395 111.94 26.5612 111.554 26.8047C111.174 27.041 110.873 27.3955 110.651 27.8682C110.437 28.3337 110.329 28.8994 110.329 29.5654V30.8115C110.329 31.4561 110.437 32.0111 110.651 32.4766C110.873 32.9349 111.185 33.2858 111.586 33.5293C111.987 33.7728 112.463 33.8945 113.015 33.8945C113.459 33.8945 113.838 33.8301 114.153 33.7012C114.476 33.5651 114.733 33.4004 114.927 33.207C115.127 33.0065 115.263 32.8132 115.335 32.627L115.367 32.5625H118.268L118.235 32.6807C118.149 33.0817 117.981 33.4899 117.73 33.9053C117.487 34.3206 117.15 34.7074 116.721 35.0654C116.298 35.4163 115.775 35.7028 115.152 35.9248C114.529 36.1396 113.795 36.2471 112.95 36.2471ZM124.743 36.2471C123.676 36.2471 122.766 36.0967 122.014 35.7959C121.269 35.488 120.686 35.069 120.263 34.5391C119.841 34.002 119.59 33.3825 119.511 32.6807L119.5 32.6055H122.573L122.594 32.6807C122.709 33.0889 122.941 33.4147 123.292 33.6582C123.65 33.9017 124.141 34.0234 124.764 34.0234C125.165 34.0234 125.509 33.9733 125.795 33.873C126.089 33.7728 126.315 33.6296 126.472 33.4434C126.637 33.25 126.719 33.028 126.719 32.7773V32.7666C126.719 32.4515 126.597 32.1973 126.354 32.0039C126.118 31.8034 125.709 31.6387 125.129 31.5098L123.163 31.0908C122.419 30.9333 121.796 30.7041 121.294 30.4033C120.793 30.1025 120.417 29.7337 120.166 29.2969C119.923 28.8529 119.801 28.3408 119.801 27.7607V27.75C119.801 27.0052 120.002 26.3607 120.403 25.8164C120.804 25.2721 121.37 24.8496 122.1 24.5488C122.838 24.248 123.693 24.0977 124.667 24.0977C125.691 24.0977 126.562 24.2588 127.278 24.5811C128.001 24.8962 128.556 25.3223 128.943 25.8594C129.329 26.3893 129.537 26.9837 129.566 27.6426V27.7178H126.665L126.655 27.6533C126.59 27.2809 126.39 26.9658 126.053 26.708C125.717 26.443 125.255 26.3105 124.667 26.3105C124.309 26.3105 123.994 26.3643 123.722 26.4717C123.45 26.5719 123.239 26.7152 123.088 26.9014C122.938 27.0876 122.863 27.3096 122.863 27.5674V27.5781C122.863 27.7786 122.913 27.9577 123.013 28.1152C123.113 28.2656 123.282 28.4017 123.518 28.5234C123.754 28.638 124.069 28.7383 124.463 28.8242L126.429 29.2432C127.625 29.4938 128.495 29.8734 129.039 30.3818C129.584 30.8903 129.856 31.5742 129.856 32.4336V32.4443C129.856 33.2106 129.637 33.8802 129.201 34.4531C128.764 35.0189 128.162 35.4593 127.396 35.7744C126.63 36.0895 125.745 36.2471 124.743 36.2471ZM136.202 36.1396C134.848 36.1396 133.86 35.8818 133.237 35.3662C132.614 34.8434 132.303 33.9876 132.303 32.7988V26.6973H130.605V24.334H132.303V21.5195H135.471V24.334H137.738V26.6973H135.471V32.2725C135.471 32.8096 135.59 33.1927 135.826 33.4219C136.069 33.6439 136.442 33.7549 136.943 33.7549C137.115 33.7549 137.258 33.7513 137.373 33.7441C137.495 33.7298 137.616 33.7191 137.738 33.7119V36.0215C137.552 36.0501 137.326 36.0752 137.061 36.0967C136.804 36.1253 136.517 36.1396 136.202 36.1396Z" fill="#FF785A" fill-opacity="0.5"/>
<path d="M87.6841 118.188C82.6008 118.188 78.1529 117.26 74.3404 115.406C70.5279 113.573 67.5591 111.01 65.4341 107.719C63.33 104.406 62.2779 100.542 62.2779 96.125C62.2779 93.7917 62.4654 91.75 62.8404 90C63.2154 88.2292 63.6737 86.6562 64.2154 85.2812C64.7571 83.9062 65.2987 82.6146 65.8404 81.4062C66.4029 80.1979 66.8612 78.9896 67.2154 77.7812C67.5904 76.5521 67.7779 75.2083 67.7779 73.75C67.7779 72.9167 67.7362 72.125 67.6529 71.375C67.5696 70.6042 67.5279 69.9583 67.5279 69.4375C67.5279 68.5417 67.7779 67.8333 68.2779 67.3125C68.7779 66.7917 69.4341 66.5312 70.2466 66.5312C71.2466 66.5312 72.2675 66.8229 73.3091 67.4062C74.3508 67.9688 75.3091 68.8125 76.1841 69.9375C77.08 71.0625 77.8404 72.4688 78.4654 74.1562L77.1216 74.5C77.4758 73.8542 77.6946 73.2812 77.7779 72.7812C77.8821 72.2812 77.9341 71.7708 77.9341 71.25C77.9133 69.2708 77.5487 67.4062 76.8404 65.6562C76.1529 63.8854 75.2466 62.1771 74.1216 60.5312C72.9966 58.8854 71.7779 57.2708 70.4654 55.6875C70.0904 55.25 69.7987 54.7917 69.5904 54.3125C69.4029 53.8125 69.3091 53.3229 69.3091 52.8438C69.3091 51.6146 69.8196 50.6771 70.8404 50.0312C71.8821 49.3646 73.2571 49.0312 74.9654 49.0312C77.7362 49.0312 80.6737 49.375 83.7779 50.0625C86.8821 50.7292 89.9758 51.7708 93.0591 53.1875C96.1425 54.5833 99.0591 56.375 101.809 58.5625C104.58 60.75 107.038 63.3333 109.184 66.3125C111.33 69.2917 113.017 72.7083 114.247 76.5625C115.497 80.3958 116.122 84.6875 116.122 89.4375C116.122 93.7292 115.445 97.6458 114.09 101.188C112.757 104.708 110.83 107.729 108.309 110.25C105.788 112.792 102.788 114.75 99.3091 116.125C95.83 117.5 91.955 118.188 87.6841 118.188ZM88.4654 107.938C90.8612 107.938 92.8716 107.427 94.4966 106.406C96.1216 105.365 97.3508 103.979 98.1841 102.25C99.0175 100.521 99.4341 98.6042 99.4341 96.5C99.4341 94.3958 99.0383 92.3125 98.2466 90.25C97.455 88.1875 96.2883 86.3125 94.7466 84.625C93.2258 82.9167 91.3404 81.5625 89.0904 80.5625C88.8612 80.4583 88.6633 80.4688 88.4966 80.5938C88.33 80.6979 88.2779 80.8854 88.3404 81.1562C88.6321 83.4896 88.6529 85.6771 88.4029 87.7188C88.1737 89.7604 87.6633 91.4167 86.8716 92.6875C86.5175 91.75 86.1008 90.8958 85.6216 90.125C85.1633 89.3333 84.6008 88.6146 83.9341 87.9688C83.7258 87.8021 83.5279 87.7604 83.3404 87.8438C83.1737 87.9062 83.08 88.0521 83.0591 88.2812C82.955 89.2604 82.6737 90.1354 82.2154 90.9062C81.7779 91.6771 81.2987 92.4583 80.7779 93.25C80.2571 94.0208 79.7987 94.8854 79.4029 95.8438C79.0071 96.8021 78.8091 97.9479 78.8091 99.2812C78.8091 101.865 79.6946 103.958 81.4654 105.562C83.2362 107.146 85.5696 107.938 88.4654 107.938Z" fill="#FF785A"/>
<path d="M46.707 154.934C44.5977 154.934 42.7637 154.635 41.2051 154.037C39.6582 153.428 38.4453 152.555 37.5664 151.418C36.6992 150.281 36.2129 148.904 36.1074 147.287L36.0898 146.971H42.084L42.1191 147.146C42.2363 147.697 42.5059 148.178 42.9277 148.588C43.3613 148.986 43.9121 149.303 44.5801 149.537C45.248 149.76 45.9922 149.871 46.8125 149.871C47.668 149.871 48.4004 149.76 49.0098 149.537C49.6309 149.303 50.1113 148.986 50.4512 148.588C50.791 148.189 50.9609 147.727 50.9609 147.199V147.182C50.9609 146.467 50.6504 145.916 50.0293 145.529C49.4082 145.131 48.3535 144.791 46.8652 144.51L44.2637 144C41.7559 143.531 39.8457 142.688 38.5332 141.469C37.2324 140.238 36.582 138.65 36.582 136.705V136.688C36.582 135.059 37.0156 133.646 37.8828 132.451C38.75 131.244 39.9395 130.312 41.4512 129.656C42.9746 128.988 44.7031 128.654 46.6367 128.654C48.7578 128.654 50.5625 128.971 52.0508 129.604C53.5391 130.225 54.6875 131.104 55.4961 132.24C56.3164 133.377 56.7617 134.713 56.832 136.248L56.8496 136.617H50.8555L50.8379 136.424C50.7676 135.861 50.5508 135.381 50.1875 134.982C49.8242 134.584 49.3438 134.273 48.7461 134.051C48.1484 133.828 47.4629 133.717 46.6895 133.717C45.9043 133.717 45.2363 133.828 44.6855 134.051C44.1348 134.273 43.7129 134.578 43.4199 134.965C43.1387 135.34 42.998 135.768 42.998 136.248V136.266C42.998 136.945 43.3086 137.484 43.9297 137.883C44.5508 138.281 45.541 138.609 46.9004 138.867L49.502 139.359C51.3066 139.699 52.7891 140.18 53.9492 140.801C55.1094 141.422 55.9707 142.213 56.5332 143.174C57.0957 144.123 57.377 145.277 57.377 146.637V146.654C57.377 148.342 56.9551 149.807 56.1113 151.049C55.2676 152.291 54.0488 153.252 52.4551 153.932C50.8613 154.6 48.9453 154.934 46.707 154.934ZM67.8578 154.881C65.5492 154.881 63.8441 154.424 62.7426 153.51C61.6527 152.584 61.1078 151.043 61.1078 148.887V139.904H58.5063V135.334H61.1078V130.922H67.3656V135.334H70.7934V139.904H67.3656V148.043C67.3656 148.863 67.5531 149.449 67.9281 149.801C68.3031 150.141 68.8656 150.311 69.6156 150.311C69.8734 150.311 70.0902 150.305 70.266 150.293C70.4418 150.27 70.6176 150.246 70.7934 150.223V154.652C70.4535 154.711 70.0434 154.764 69.5629 154.811C69.0824 154.857 68.5141 154.881 67.8578 154.881ZM72.9598 154.477V135.334H79.2V138.727H79.323C79.5926 137.508 80.0906 136.57 80.8172 135.914C81.5555 135.258 82.493 134.93 83.6297 134.93C83.9227 134.93 84.2039 134.953 84.4734 135C84.7547 135.035 85.0125 135.094 85.2469 135.176V140.52C84.9891 140.402 84.6844 140.314 84.3328 140.256C83.993 140.197 83.6355 140.168 83.2605 140.168C82.3816 140.168 81.6375 140.326 81.0281 140.643C80.4305 140.959 79.9734 141.428 79.657 142.049C79.3523 142.658 79.2 143.414 79.2 144.316V154.477H72.9598ZM95.3762 154.881C93.3605 154.881 91.6262 154.482 90.173 153.686C88.7199 152.877 87.6008 151.729 86.8156 150.24C86.0422 148.752 85.6555 146.977 85.6555 144.914V144.896C85.6555 142.846 86.0422 141.076 86.8156 139.588C87.6008 138.1 88.7023 136.951 90.1203 136.143C91.55 135.334 93.2316 134.93 95.1652 134.93C97.0988 134.93 98.7746 135.328 100.193 136.125C101.611 136.91 102.706 138.023 103.48 139.465C104.253 140.895 104.64 142.576 104.64 144.51V146.338H88.7141V142.646H101.722L98.8215 146.109V143.701C98.8215 142.775 98.675 141.99 98.382 141.346C98.0891 140.689 97.6789 140.197 97.1516 139.869C96.6242 139.529 96.009 139.359 95.3059 139.359C94.6027 139.359 93.9816 139.529 93.4426 139.869C92.9152 140.209 92.5051 140.707 92.2121 141.363C91.9191 142.008 91.7727 142.787 91.7727 143.701V146.127C91.7727 147.029 91.9191 147.803 92.2121 148.447C92.5168 149.092 92.9445 149.59 93.4953 149.941C94.0578 150.281 94.7258 150.451 95.4992 150.451C96.1672 150.451 96.7355 150.346 97.2043 150.135C97.673 149.924 98.0422 149.666 98.3117 149.361C98.593 149.057 98.7805 148.77 98.8742 148.5L98.8918 148.43H104.517L104.464 148.641C104.323 149.309 104.054 150.006 103.655 150.732C103.257 151.447 102.7 152.121 101.986 152.754C101.282 153.387 100.386 153.902 99.2961 154.301C98.218 154.688 96.9113 154.881 95.3762 154.881ZM112.396 154.74C111.119 154.74 109.994 154.494 109.021 154.002C108.048 153.498 107.287 152.812 106.736 151.945C106.197 151.066 105.927 150.07 105.927 148.957V148.939C105.927 147.732 106.226 146.707 106.824 145.863C107.433 145.02 108.312 144.357 109.461 143.877C110.609 143.385 112.004 143.086 113.644 142.98L121.308 142.488V146.109L114.646 146.566C113.779 146.613 113.129 146.812 112.695 147.164C112.261 147.504 112.045 147.961 112.045 148.535V148.553C112.045 149.15 112.273 149.613 112.73 149.941C113.199 150.258 113.814 150.416 114.576 150.416C115.244 150.416 115.83 150.299 116.334 150.064C116.849 149.818 117.254 149.484 117.546 149.062C117.851 148.629 118.004 148.148 118.004 147.621V141.75C118.004 141.059 117.781 140.514 117.336 140.115C116.89 139.705 116.24 139.5 115.384 139.5C114.541 139.5 113.879 139.67 113.398 140.01C112.918 140.35 112.625 140.766 112.519 141.258L112.484 141.434H106.859L106.877 141.205C106.982 139.951 107.392 138.855 108.107 137.918C108.822 136.98 109.818 136.248 111.095 135.721C112.384 135.193 113.92 134.93 115.701 134.93C117.412 134.93 118.906 135.199 120.183 135.738C121.472 136.277 122.468 137.033 123.171 138.006C123.886 138.979 124.244 140.109 124.244 141.398V154.477H118.004V151.77H117.88C117.517 152.391 117.066 152.924 116.527 153.369C115.988 153.814 115.373 154.154 114.681 154.389C113.99 154.623 113.228 154.74 112.396 154.74ZM126.955 154.477V129.111H133.178V154.477H126.955ZM138.961 154.477L133.758 146.373L137.643 141.469L146.15 154.477H138.961ZM132.598 149.309V142.594H133.301L138.785 135.334H145.729L137.027 145.916H135.41L132.598 149.309Z" fill="#FF785A"/>
<ellipse cx="291" cy="85.3389" rx="66" ry="66.3389" fill="#FFE6DE"/>
<path d="M348.25 85.3389C348.25 117.187 322.576 142.928 291 142.928C259.424 142.928 233.75 117.187 233.75 85.3389C233.75 53.4911 259.424 27.75 291 27.75C322.576 27.75 348.25 53.4911 348.25 85.3389Z" stroke="#FF785A" stroke-opacity="0.7" stroke-width="17.5"/>
<path d="M290.872 118.143C285.862 118.143 281.482 117.337 277.732 115.726C273.982 114.114 271.009 111.873 268.812 109.002C266.614 106.131 265.354 102.791 265.032 98.9824L264.988 98.4111H280.369L280.457 98.9385C280.662 100.14 281.204 101.238 282.083 102.234C282.962 103.201 284.134 103.978 285.599 104.563C287.093 105.149 288.851 105.442 290.872 105.442C292.864 105.442 294.578 105.12 296.014 104.476C297.479 103.831 298.606 102.952 299.397 101.839C300.188 100.696 300.584 99.3926 300.584 97.9277V97.8398C300.584 95.2617 299.632 93.2988 297.728 91.9512C295.823 90.6035 293.113 89.9297 289.598 89.9297H282.742V78.9873H289.51C291.59 78.9873 293.362 78.6797 294.827 78.0645C296.321 77.4492 297.464 76.585 298.255 75.4717C299.075 74.3584 299.485 73.0693 299.485 71.6045V71.5166C299.485 70.0518 299.134 68.792 298.431 67.7373C297.757 66.6826 296.761 65.877 295.442 65.3203C294.153 64.7637 292.601 64.4854 290.784 64.4854C288.938 64.4854 287.312 64.7783 285.906 65.3643C284.529 65.9209 283.431 66.7266 282.61 67.7812C281.819 68.8066 281.336 70.0078 281.16 71.3848L281.116 71.7803H266.482L266.526 71.165C266.819 67.3857 267.991 64.1045 270.042 61.3213C272.093 58.5088 274.876 56.3262 278.392 54.7734C281.937 53.2207 286.067 52.4443 290.784 52.4443C295.589 52.4443 299.764 53.1475 303.309 54.5537C306.883 55.9307 309.637 57.8789 311.57 60.3984C313.504 62.918 314.471 65.877 314.471 69.2754V69.3633C314.471 72.0293 313.87 74.3584 312.669 76.3506C311.497 78.3135 309.915 79.9248 307.923 81.1846C305.931 82.4443 303.748 83.3232 301.375 83.8213V84.1289C306.121 84.5977 309.9 86.1064 312.713 88.6553C315.555 91.2041 316.976 94.5732 316.976 98.7627V98.8506C316.976 102.747 315.906 106.146 313.768 109.046C311.629 111.917 308.611 114.158 304.715 115.77C300.818 117.352 296.204 118.143 290.872 118.143Z" fill="#FF785A"/>
</g>
<defs>
<clipPath id="clip0_846_5230">
<rect width="380" height="170.4" rx="22" fill="white"/>
</clipPath>
</defs>
</svg>
