<svg width="426" height="191" viewBox="0 0 426 191" fill="none" xmlns="http://www.w3.org/2000/svg">
<rect width="426" height="191" rx="22" fill="#D9D9D9"/>
<path d="M111.218 102L107.956 90.022H109.516L111.898 99.7588H111.998L114.679 90.022H116.19L118.871 99.7588H118.971L121.353 90.022H122.914L119.651 102H118.24L115.484 92.5454H115.385L112.629 102H111.218ZM125.188 102V90.022H132.609V91.3667H126.682V95.21H132.302V96.5381H126.682V100.655H132.609V102H125.188ZM143.217 102.158C142.465 102.158 141.806 101.967 141.242 101.585C140.677 101.203 140.24 100.666 139.93 99.9746C139.62 99.2773 139.465 98.4639 139.465 97.5342V97.5176C139.465 96.5824 139.62 95.7689 139.93 95.0771C140.24 94.3854 140.674 93.8486 141.233 93.4668C141.798 93.085 142.459 92.894 143.217 92.894C143.627 92.894 144.011 92.9604 144.371 93.0933C144.736 93.2205 145.06 93.4004 145.342 93.6328C145.625 93.8652 145.846 94.1419 146.006 94.4629H146.139V89.499H147.583V102H146.139V100.572H146.006C145.824 100.904 145.594 101.189 145.317 101.427C145.041 101.66 144.725 101.84 144.371 101.967C144.017 102.094 143.632 102.158 143.217 102.158ZM143.549 100.879C144.092 100.879 144.559 100.744 144.952 100.473C145.345 100.201 145.647 99.8169 145.857 99.3188C146.067 98.8153 146.172 98.2204 146.172 97.5342V97.5176C146.172 96.8258 146.067 96.231 145.857 95.7329C145.647 95.2349 145.345 94.8503 144.952 94.5791C144.559 94.3079 144.092 94.1724 143.549 94.1724C143.007 94.1724 142.539 94.3079 142.146 94.5791C141.759 94.8447 141.46 95.2266 141.25 95.7246C141.045 96.2227 140.943 96.8203 140.943 97.5176V97.5342C140.943 98.2259 141.045 98.8236 141.25 99.3271C141.46 99.8252 141.759 100.21 142.146 100.481C142.539 100.747 143.007 100.879 143.549 100.879ZM154.033 102.158C153.187 102.158 152.453 101.972 151.833 101.602C151.219 101.225 150.743 100.691 150.406 99.9995C150.074 99.3078 149.908 98.486 149.908 97.5342V97.5176C149.908 96.5602 150.074 95.7357 150.406 95.0439C150.743 94.3522 151.219 93.821 151.833 93.4502C152.453 93.0794 153.187 92.894 154.033 92.894C154.885 92.894 155.619 93.0794 156.233 93.4502C156.847 93.821 157.32 94.3522 157.652 95.0439C157.99 95.7357 158.159 96.5602 158.159 97.5176V97.5342C158.159 98.486 157.99 99.3078 157.652 99.9995C157.32 100.691 156.847 101.225 156.233 101.602C155.619 101.972 154.885 102.158 154.033 102.158ZM154.033 100.879C154.598 100.879 155.076 100.747 155.469 100.481C155.862 100.215 156.161 99.8335 156.366 99.3354C156.576 98.8374 156.681 98.237 156.681 97.5342V97.5176C156.681 96.8092 156.576 96.2061 156.366 95.708C156.161 95.21 155.862 94.8309 155.469 94.5708C155.076 94.3052 154.598 94.1724 154.033 94.1724C153.469 94.1724 152.99 94.3052 152.597 94.5708C152.204 94.8309 151.903 95.21 151.692 95.708C151.488 96.2061 151.385 96.8092 151.385 97.5176V97.5342C151.385 98.237 151.488 98.8374 151.692 99.3354C151.903 99.8335 152.204 100.215 152.597 100.481C152.99 100.747 153.469 100.879 154.033 100.879ZM168.36 102.066C167.442 102.066 166.775 101.881 166.36 101.51C165.95 101.139 165.746 100.528 165.746 99.6758V94.2471H164.334V93.0518H165.746V90.7358H167.24V93.0518H169.199V94.2471H167.24V99.3105C167.24 99.8363 167.339 100.215 167.539 100.448C167.738 100.675 168.07 100.788 168.535 100.788C168.662 100.788 168.77 100.785 168.858 100.78C168.952 100.774 169.066 100.766 169.199 100.755V101.983C169.06 102.006 168.922 102.025 168.784 102.042C168.645 102.058 168.504 102.066 168.36 102.066ZM171.44 102V89.499H172.884V94.3965H173.017C173.244 93.9206 173.57 93.5526 173.997 93.2925C174.423 93.0269 174.965 92.894 175.624 92.894C176.293 92.894 176.86 93.0241 177.325 93.2842C177.79 93.5387 178.144 93.9123 178.388 94.4048C178.631 94.8973 178.753 95.4977 178.753 96.2061V102H177.309V96.5547C177.309 95.7467 177.137 95.1491 176.794 94.7617C176.456 94.3688 175.931 94.1724 175.217 94.1724C174.741 94.1724 174.329 94.2747 173.98 94.4795C173.631 94.6842 173.36 94.9748 173.167 95.3511C172.978 95.7274 172.884 96.1784 172.884 96.7041V102H171.44ZM185.02 102.158C184.168 102.158 183.435 101.97 182.82 101.593C182.212 101.217 181.741 100.686 181.409 99.9995C181.083 99.3078 180.919 98.4943 180.919 97.5591V97.5508C180.919 96.6266 181.083 95.8159 181.409 95.1187C181.741 94.4214 182.209 93.8763 182.812 93.4834C183.415 93.0905 184.121 92.894 184.929 92.894C185.742 92.894 186.439 93.0822 187.021 93.4585C187.607 93.8348 188.055 94.3605 188.365 95.0356C188.681 95.7052 188.838 96.4855 188.838 97.3765V97.9409H181.667V96.7871H188.1L187.386 97.8413V97.2686C187.386 96.5658 187.281 95.9875 187.07 95.5337C186.86 95.0799 186.569 94.7424 186.199 94.521C185.828 94.2941 185.402 94.1807 184.92 94.1807C184.439 94.1807 184.007 94.2996 183.625 94.5376C183.249 94.77 182.95 95.1159 182.729 95.5752C182.508 96.0345 182.397 96.599 182.397 97.2686V97.8413C182.397 98.4777 182.505 99.0228 182.721 99.4766C182.937 99.9248 183.244 100.271 183.642 100.514C184.041 100.752 184.511 100.871 185.053 100.871C185.457 100.871 185.809 100.816 186.107 100.705C186.406 100.594 186.653 100.453 186.846 100.282C187.04 100.11 187.175 99.9359 187.253 99.7588L187.286 99.6841H188.73L188.714 99.7505C188.636 100.055 188.498 100.351 188.299 100.639C188.105 100.921 187.853 101.178 187.543 101.411C187.234 101.638 186.866 101.82 186.439 101.958C186.019 102.091 185.546 102.158 185.02 102.158ZM198.932 102.158C198.268 102.158 197.681 102.058 197.172 101.859C196.663 101.654 196.254 101.369 195.944 101.004C195.639 100.639 195.46 100.21 195.404 99.7173H196.882C197.004 100.088 197.242 100.387 197.596 100.614C197.95 100.841 198.412 100.954 198.982 100.954C199.386 100.954 199.74 100.896 200.044 100.78C200.354 100.658 200.598 100.495 200.775 100.29C200.952 100.08 201.041 99.839 201.041 99.5679V99.5513C201.041 99.2469 200.919 98.9896 200.675 98.7793C200.432 98.5635 200.033 98.3892 199.48 98.2563L198.094 97.9243C197.535 97.7915 197.076 97.62 196.716 97.4097C196.356 97.1938 196.09 96.931 195.919 96.6211C195.747 96.3057 195.662 95.9349 195.662 95.5088V95.5005C195.662 95.0024 195.806 94.557 196.093 94.1641C196.387 93.7712 196.785 93.4613 197.289 93.2344C197.792 93.0075 198.359 92.894 198.99 92.894C199.616 92.894 200.169 92.9937 200.65 93.1929C201.137 93.3866 201.528 93.6632 201.821 94.0229C202.12 94.3826 202.302 94.806 202.369 95.293H200.949C200.855 94.9388 200.639 94.651 200.302 94.4297C199.964 94.2083 199.524 94.0977 198.982 94.0977C198.628 94.0977 198.312 94.1558 198.036 94.272C197.759 94.3826 197.54 94.5376 197.38 94.7368C197.219 94.936 197.139 95.1685 197.139 95.4341V95.4507C197.139 95.6499 197.192 95.827 197.297 95.9819C197.402 96.1369 197.565 96.2725 197.787 96.3887C198.008 96.5049 198.293 96.6073 198.642 96.6958L200.02 97.0278C200.861 97.2326 201.486 97.5259 201.896 97.9077C202.311 98.2896 202.518 98.8014 202.518 99.4434V99.46C202.518 99.9912 202.36 100.462 202.045 100.871C201.729 101.275 201.301 101.59 200.758 101.817C200.222 102.044 199.613 102.158 198.932 102.158ZM207.855 102.066C206.937 102.066 206.27 101.881 205.855 101.51C205.445 101.139 205.241 100.528 205.241 99.6758V94.2471H203.83V93.0518H205.241V90.7358H206.735V93.0518H208.694V94.2471H206.735V99.3105C206.735 99.8363 206.834 100.215 207.034 100.448C207.233 100.675 207.565 100.788 208.03 100.788C208.157 100.788 208.265 100.785 208.354 100.78C208.448 100.774 208.561 100.766 208.694 100.755V101.983C208.556 102.006 208.417 102.025 208.279 102.042C208.14 102.058 207.999 102.066 207.855 102.066ZM213.849 102.158C213.174 102.158 212.606 102.03 212.147 101.776C211.688 101.516 211.342 101.139 211.109 100.647C210.882 100.149 210.769 99.5485 210.769 98.8457V93.0518H212.213V98.4971C212.213 99.2995 212.368 99.8971 212.678 100.29C212.994 100.683 213.508 100.879 214.222 100.879C214.615 100.879 214.961 100.821 215.26 100.705C215.564 100.589 215.819 100.423 216.023 100.207C216.228 99.9857 216.38 99.7201 216.48 99.4102C216.585 99.0947 216.638 98.7406 216.638 98.3477V93.0518H218.082V102H216.638V100.664H216.505C216.361 100.979 216.165 101.25 215.916 101.477C215.667 101.698 215.368 101.867 215.019 101.983C214.676 102.1 214.286 102.158 213.849 102.158ZM221.626 102V94.2471H220.141V93.0518H221.626V92.0557C221.626 91.458 221.723 90.9655 221.917 90.5781C222.116 90.1852 222.41 89.8947 222.797 89.7065C223.184 89.5129 223.66 89.416 224.225 89.416C224.402 89.416 224.568 89.4243 224.723 89.4409C224.883 89.452 225.038 89.4714 225.188 89.499V90.6528C225.099 90.6362 224.997 90.6252 224.88 90.6196C224.764 90.6141 224.642 90.6113 224.515 90.6113C224 90.6113 223.63 90.7358 223.403 90.9849C223.181 91.2339 223.071 91.6047 223.071 92.0972V93.0518H225.104V94.2471H223.071V102H221.626ZM227.786 102V94.2471H226.3V93.0518H227.786V92.0557C227.786 91.458 227.882 90.9655 228.076 90.5781C228.275 90.1852 228.569 89.8947 228.956 89.7065C229.343 89.5129 229.819 89.416 230.384 89.416C230.561 89.416 230.727 89.4243 230.882 89.4409C231.042 89.452 231.197 89.4714 231.347 89.499V90.6528C231.258 90.6362 231.156 90.6252 231.04 90.6196C230.923 90.6141 230.802 90.6113 230.674 90.6113C230.16 90.6113 229.789 90.7358 229.562 90.9849C229.341 91.2339 229.23 91.6047 229.23 92.0972V93.0518H231.264V94.2471H229.23V102H227.786ZM238.211 102V89.499H239.656V94.3965H239.789C240.015 93.9206 240.342 93.5526 240.768 93.2925C241.194 93.0269 241.736 92.894 242.395 92.894C243.065 92.894 243.632 93.0241 244.097 93.2842C244.562 93.5387 244.916 93.9123 245.159 94.4048C245.403 94.8973 245.524 95.4977 245.524 96.2061V102H244.08V96.5547C244.08 95.7467 243.909 95.1491 243.565 94.7617C243.228 94.3688 242.702 94.1724 241.988 94.1724C241.512 94.1724 241.1 94.2747 240.751 94.4795C240.403 94.6842 240.132 94.9748 239.938 95.3511C239.75 95.7274 239.656 96.1784 239.656 96.7041V102H238.211ZM251.792 102.158C250.939 102.158 250.206 101.97 249.592 101.593C248.983 101.217 248.513 100.686 248.181 99.9995C247.854 99.3078 247.691 98.4943 247.691 97.5591V97.5508C247.691 96.6266 247.854 95.8159 248.181 95.1187C248.513 94.4214 248.98 93.8763 249.583 93.4834C250.187 93.0905 250.892 92.894 251.7 92.894C252.514 92.894 253.211 93.0822 253.792 93.4585C254.379 93.8348 254.827 94.3605 255.137 95.0356C255.452 95.7052 255.61 96.4855 255.61 97.3765V97.9409H248.438V96.7871H254.871L254.157 97.8413V97.2686C254.157 96.5658 254.052 95.9875 253.842 95.5337C253.632 95.0799 253.341 94.7424 252.97 94.521C252.599 94.2941 252.173 94.1807 251.692 94.1807C251.21 94.1807 250.779 94.2996 250.397 94.5376C250.021 94.77 249.722 95.1159 249.5 95.5752C249.279 96.0345 249.168 96.599 249.168 97.2686V97.8413C249.168 98.4777 249.276 99.0228 249.492 99.4766C249.708 99.9248 250.015 100.271 250.414 100.514C250.812 100.752 251.282 100.871 251.825 100.871C252.229 100.871 252.58 100.816 252.879 100.705C253.178 100.594 253.424 100.453 253.618 100.282C253.811 100.11 253.947 99.9359 254.024 99.7588L254.058 99.6841H255.502L255.485 99.7505C255.408 100.055 255.27 100.351 255.07 100.639C254.877 100.921 254.625 101.178 254.315 101.411C254.005 101.638 253.637 101.82 253.211 101.958C252.79 102.091 252.317 102.158 251.792 102.158ZM257.851 102V93.0518H259.295V94.3799H259.428C259.6 93.9095 259.89 93.5443 260.3 93.2842C260.709 93.0241 261.216 92.894 261.819 92.894C261.957 92.894 262.093 92.9023 262.226 92.9189C262.364 92.93 262.469 92.9411 262.541 92.9521V94.355C262.392 94.3273 262.245 94.3079 262.101 94.2969C261.963 94.2803 261.813 94.272 261.653 94.272C261.194 94.272 260.787 94.3633 260.433 94.5459C260.078 94.7285 259.799 94.9831 259.594 95.3096C259.395 95.6361 259.295 96.0179 259.295 96.4551V102H257.851ZM264.492 102V93.0518H265.936V94.3799H266.069C266.24 93.9095 266.531 93.5443 266.94 93.2842C267.35 93.0241 267.856 92.894 268.459 92.894C268.598 92.894 268.733 92.9023 268.866 92.9189C269.005 92.93 269.11 92.9411 269.182 92.9521V94.355C269.032 94.3273 268.886 94.3079 268.742 94.2969C268.603 94.2803 268.454 94.272 268.293 94.272C267.834 94.272 267.427 94.3633 267.073 94.5459C266.719 94.7285 266.44 94.9831 266.235 95.3096C266.036 95.6361 265.936 96.0179 265.936 96.4551V102H264.492ZM274.37 102.158C273.517 102.158 272.784 101.97 272.17 101.593C271.561 101.217 271.091 100.686 270.759 99.9995C270.432 99.3078 270.269 98.4943 270.269 97.5591V97.5508C270.269 96.6266 270.432 95.8159 270.759 95.1187C271.091 94.4214 271.558 93.8763 272.162 93.4834C272.765 93.0905 273.47 92.894 274.278 92.894C275.092 92.894 275.789 93.0822 276.37 93.4585C276.957 93.8348 277.405 94.3605 277.715 95.0356C278.03 95.7052 278.188 96.4855 278.188 97.3765V97.9409H271.016V96.7871H277.449L276.735 97.8413V97.2686C276.735 96.5658 276.63 95.9875 276.42 95.5337C276.21 95.0799 275.919 94.7424 275.548 94.521C275.178 94.2941 274.751 94.1807 274.27 94.1807C273.789 94.1807 273.357 94.2996 272.975 94.5376C272.599 94.77 272.3 95.1159 272.079 95.5752C271.857 96.0345 271.747 96.599 271.747 97.2686V97.8413C271.747 98.4777 271.854 99.0228 272.07 99.4766C272.286 99.9248 272.593 100.271 272.992 100.514C273.39 100.752 273.861 100.871 274.403 100.871C274.807 100.871 275.158 100.816 275.457 100.705C275.756 100.594 276.002 100.453 276.196 100.282C276.389 100.11 276.525 99.9359 276.603 99.7588L276.636 99.6841H278.08L278.063 99.7505C277.986 100.055 277.848 100.351 277.648 100.639C277.455 100.921 277.203 101.178 276.893 101.411C276.583 101.638 276.215 101.82 275.789 101.958C275.368 102.091 274.895 102.158 274.37 102.158ZM285.293 102V89.499H286.738V102H285.293ZM291.967 102.158C291.403 102.158 290.894 102.05 290.44 101.834C289.992 101.618 289.635 101.311 289.369 100.913C289.109 100.514 288.979 100.044 288.979 99.5015V99.4849C288.979 98.9536 289.106 98.4998 289.361 98.1235C289.615 97.7417 289.986 97.4429 290.473 97.2271C290.96 97.0112 291.549 96.884 292.241 96.8452L295.528 96.646V97.7998L292.416 97.999C291.735 98.0378 291.237 98.1789 290.921 98.4224C290.611 98.6659 290.457 99.009 290.457 99.4517V99.4683C290.457 99.922 290.628 100.276 290.971 100.531C291.314 100.78 291.746 100.904 292.266 100.904C292.759 100.904 293.196 100.807 293.578 100.614C293.959 100.415 294.258 100.146 294.474 99.8086C294.695 99.471 294.806 99.0892 294.806 98.6631V95.874C294.806 95.3206 294.637 94.9001 294.3 94.6123C293.968 94.319 293.467 94.1724 292.797 94.1724C292.261 94.1724 291.821 94.2692 291.478 94.4629C291.134 94.651 290.905 94.9194 290.789 95.2681L290.78 95.293H289.336L289.344 95.2432C289.422 94.7728 289.615 94.3633 289.925 94.0146C290.241 93.6605 290.647 93.3866 291.146 93.1929C291.644 92.9937 292.211 92.894 292.847 92.894C293.578 92.894 294.195 93.013 294.698 93.251C295.207 93.4889 295.592 93.832 295.852 94.2803C296.118 94.723 296.25 95.2542 296.25 95.874V102H294.806V100.68H294.673C294.485 100.996 294.256 101.264 293.984 101.485C293.719 101.707 293.417 101.875 293.08 101.992C292.742 102.102 292.371 102.158 291.967 102.158ZM302.069 102.066C301.151 102.066 300.484 101.881 300.069 101.51C299.659 101.139 299.455 100.528 299.455 99.6758V94.2471H298.043V93.0518H299.455V90.7358H300.949V93.0518H302.908V94.2471H300.949V99.3105C300.949 99.8363 301.048 100.215 301.248 100.448C301.447 100.675 301.779 100.788 302.244 100.788C302.371 100.788 302.479 100.785 302.567 100.78C302.661 100.774 302.775 100.766 302.908 100.755V101.983C302.769 102.006 302.631 102.025 302.493 102.042C302.354 102.058 302.213 102.066 302.069 102.066ZM308.602 102.158C307.75 102.158 307.017 101.97 306.402 101.593C305.794 101.217 305.323 100.686 304.991 99.9995C304.665 99.3078 304.501 98.4943 304.501 97.5591V97.5508C304.501 96.6266 304.665 95.8159 304.991 95.1187C305.323 94.4214 305.791 93.8763 306.394 93.4834C306.997 93.0905 307.703 92.894 308.511 92.894C309.324 92.894 310.021 93.0822 310.603 93.4585C311.189 93.8348 311.637 94.3605 311.947 95.0356C312.263 95.7052 312.42 96.4855 312.42 97.3765V97.9409H305.249V96.7871H311.682L310.968 97.8413V97.2686C310.968 96.5658 310.863 95.9875 310.652 95.5337C310.442 95.0799 310.152 94.7424 309.781 94.521C309.41 94.2941 308.984 94.1807 308.502 94.1807C308.021 94.1807 307.589 94.2996 307.208 94.5376C306.831 94.77 306.532 95.1159 306.311 95.5752C306.09 96.0345 305.979 96.599 305.979 97.2686V97.8413C305.979 98.4777 306.087 99.0228 306.303 99.4766C306.519 99.9248 306.826 100.271 307.224 100.514C307.623 100.752 308.093 100.871 308.635 100.871C309.039 100.871 309.391 100.816 309.689 100.705C309.988 100.594 310.235 100.453 310.428 100.282C310.622 100.11 310.757 99.9359 310.835 99.7588L310.868 99.6841H312.312L312.296 99.7505C312.218 100.055 312.08 100.351 311.881 100.639C311.687 100.921 311.435 101.178 311.125 101.411C310.816 101.638 310.448 101.82 310.021 101.958C309.601 102.091 309.128 102.158 308.602 102.158ZM314.662 102V93.0518H316.106V94.3799H316.239C316.41 93.9095 316.701 93.5443 317.11 93.2842C317.52 93.0241 318.026 92.894 318.629 92.894C318.768 92.894 318.903 92.9023 319.036 92.9189C319.174 92.93 319.28 92.9411 319.352 92.9521V94.355C319.202 94.3273 319.056 94.3079 318.912 94.2969C318.773 94.2803 318.624 94.272 318.463 94.272C318.004 94.272 317.597 94.3633 317.243 94.5459C316.889 94.7285 316.61 94.9831 316.405 95.3096C316.206 95.6361 316.106 96.0179 316.106 96.4551V102H314.662Z" fill="black"/>
</svg>
