<svg width="380" height="171" viewBox="0 0 380 171" fill="none" xmlns="http://www.w3.org/2000/svg">
<g clip-path="url(#clip0_846_5214)">
<rect width="380" height="170.4" rx="22" fill="#FFBDAB"/>
<rect width="189" height="170.4" rx="22" fill="#FFD4BA"/>
<path d="M49.1758 36.333C47.944 36.333 46.8698 36.1504 45.9531 35.7852C45.0436 35.4199 44.3275 34.8971 43.8047 34.2168C43.2891 33.5365 42.999 32.7308 42.9346 31.7998L42.9238 31.6279H46.0176L46.0391 31.7354C46.0964 32.1292 46.2646 32.473 46.5439 32.7666C46.8304 33.0602 47.2028 33.2894 47.6611 33.4541C48.1266 33.6117 48.6566 33.6904 49.251 33.6904C49.8454 33.6904 50.361 33.6081 50.7979 33.4434C51.2347 33.2715 51.5713 33.0352 51.8076 32.7344C52.0511 32.4336 52.1729 32.0863 52.1729 31.6924V31.6816C52.1729 31.166 51.9652 30.7578 51.5498 30.457C51.1416 30.1562 50.4577 29.9056 49.498 29.7051L47.8545 29.3828C46.2933 29.0605 45.1331 28.5306 44.374 27.793C43.6221 27.0482 43.2461 26.0921 43.2461 24.9248V24.9141C43.2533 23.9616 43.5075 23.1309 44.0088 22.4219C44.5173 21.7129 45.2155 21.1615 46.1035 20.7676C46.9987 20.3665 48.0156 20.166 49.1543 20.166C50.3574 20.166 51.3923 20.3594 52.2588 20.7461C53.1253 21.1257 53.8021 21.6556 54.2891 22.3359C54.776 23.0091 55.0482 23.7897 55.1055 24.6777L55.1162 24.8496H52.0654L52.0439 24.7207C51.9867 24.3268 51.8327 23.9902 51.582 23.7109C51.3314 23.4245 50.9984 23.2025 50.583 23.0449C50.1748 22.8874 49.6986 22.8086 49.1543 22.8086C48.6172 22.8086 48.1481 22.8874 47.7471 23.0449C47.346 23.2025 47.0345 23.4245 46.8125 23.7109C46.5977 23.9902 46.4902 24.3197 46.4902 24.6992V24.71C46.4902 25.2041 46.6943 25.6051 47.1025 25.9131C47.5179 26.221 48.1768 26.4645 49.0791 26.6436L50.7119 26.9766C51.8076 27.1986 52.6992 27.4993 53.3867 27.8789C54.0814 28.2585 54.5934 28.7347 54.9229 29.3076C55.2523 29.8805 55.417 30.5716 55.417 31.3809V31.3916C55.417 32.4014 55.1663 33.2751 54.665 34.0127C54.1709 34.7503 53.4548 35.3232 52.5166 35.7314C51.5856 36.1325 50.472 36.333 49.1758 36.333ZM61.9672 36.1396C60.6137 36.1396 59.6254 35.8818 59.0023 35.3662C58.3793 34.8434 58.0678 33.9876 58.0678 32.7988V26.6973H56.3705V24.334H58.0678V21.5195H61.2367V24.334H63.5033V26.6973H61.2367V32.2725C61.2367 32.8096 61.3549 33.1927 61.5912 33.4219C61.8347 33.6439 62.2071 33.7549 62.7084 33.7549C62.8803 33.7549 63.0235 33.7513 63.1381 33.7441C63.2598 33.7298 63.3816 33.7191 63.5033 33.7119V36.0215C63.3171 36.0501 63.0915 36.0752 62.8266 36.0967C62.5688 36.1253 62.2823 36.1396 61.9672 36.1396ZM69.1619 36.2471C68.3025 36.2471 67.5757 36.0752 66.9813 35.7314C66.3868 35.3805 65.9357 34.8792 65.6277 34.2275C65.327 33.5758 65.1766 32.7917 65.1766 31.875V24.334H68.3133V31.1875C68.3133 31.9824 68.4852 32.5911 68.8289 33.0137C69.1727 33.4362 69.7062 33.6475 70.4295 33.6475C70.7947 33.6475 71.1206 33.5866 71.407 33.4648C71.7007 33.3359 71.9477 33.1605 72.1482 32.9385C72.3488 32.7093 72.4992 32.4372 72.5994 32.1221C72.7068 31.7998 72.7605 31.4453 72.7605 31.0586V24.334H75.8973V36H72.7605V34.1416H72.6316C72.4454 34.5713 72.1912 34.9437 71.8689 35.2588C71.5467 35.5739 71.1564 35.8174 70.698 35.9893C70.2469 36.1611 69.7348 36.2471 69.1619 36.2471ZM82.3078 36.2148C81.3339 36.2148 80.4924 35.9714 79.7834 35.4844C79.0744 34.9974 78.5266 34.3027 78.1398 33.4004C77.7603 32.498 77.5705 31.4238 77.5705 30.1777V30.1562C77.5705 28.8958 77.7603 27.818 78.1398 26.9229C78.5194 26.0205 79.0637 25.3294 79.7727 24.8496C80.4816 24.3626 81.3267 24.1191 82.3078 24.1191C82.8521 24.1191 83.3534 24.2087 83.8117 24.3877C84.2701 24.5596 84.6711 24.8066 85.0148 25.1289C85.3658 25.4512 85.6451 25.8379 85.8527 26.2891H85.9709V20.1016H89.1076V36H85.9709V34.0986H85.8527C85.6451 34.5426 85.3693 34.9222 85.0256 35.2373C84.689 35.5452 84.2915 35.7852 83.8332 35.957C83.3749 36.1289 82.8664 36.2148 82.3078 36.2148ZM83.3605 33.6152C83.8977 33.6152 84.3632 33.4756 84.757 33.1963C85.1509 32.917 85.4553 32.5231 85.6701 32.0146C85.885 31.499 85.9924 30.8867 85.9924 30.1777V30.167C85.9924 29.458 85.8814 28.8457 85.6594 28.3301C85.4445 27.8145 85.1402 27.417 84.7463 27.1377C84.3524 26.8584 83.8905 26.7188 83.3605 26.7188C82.8306 26.7188 82.3687 26.8584 81.9748 27.1377C81.5881 27.417 81.2873 27.8145 81.0725 28.3301C80.8648 28.8385 80.7609 29.4473 80.7609 30.1562V30.1777C80.7609 30.8867 80.8648 31.499 81.0725 32.0146C81.2801 32.5303 81.5809 32.9277 81.9748 33.207C82.3687 33.4792 82.8306 33.6152 83.3605 33.6152ZM92.9615 39.9746C92.718 39.9746 92.4745 39.9639 92.2311 39.9424C91.9876 39.9281 91.7727 39.9102 91.5865 39.8887V37.5361C91.7011 37.5576 91.8372 37.5755 91.9947 37.5898C92.1594 37.6042 92.3385 37.6113 92.5318 37.6113C93.0403 37.6113 93.4449 37.5182 93.7457 37.332C94.0465 37.1458 94.2577 36.8415 94.3795 36.4189L94.4977 36L90.3941 24.334H93.8424L96.5494 34.2383L95.9908 33.3252H96.7428L96.1949 34.2383L98.902 24.334H102.211L98.2252 36.1074C97.9029 37.0742 97.5055 37.8405 97.0328 38.4062C96.5602 38.972 95.9908 39.373 95.3248 39.6094C94.666 39.8529 93.8782 39.9746 92.9615 39.9746Z" fill="#FF785A" fill-opacity="0.5"/>
<path d="M87.6841 118.188C82.6008 118.188 78.1529 117.26 74.3404 115.406C70.5279 113.573 67.5591 111.01 65.4341 107.719C63.33 104.406 62.2779 100.542 62.2779 96.125C62.2779 93.7917 62.4654 91.75 62.8404 90C63.2154 88.2292 63.6737 86.6562 64.2154 85.2812C64.7571 83.9062 65.2987 82.6146 65.8404 81.4062C66.4029 80.1979 66.8612 78.9896 67.2154 77.7812C67.5904 76.5521 67.7779 75.2083 67.7779 73.75C67.7779 72.9167 67.7362 72.125 67.6529 71.375C67.5696 70.6042 67.5279 69.9583 67.5279 69.4375C67.5279 68.5417 67.7779 67.8333 68.2779 67.3125C68.7779 66.7917 69.4341 66.5312 70.2466 66.5312C71.2466 66.5312 72.2675 66.8229 73.3091 67.4062C74.3508 67.9688 75.3091 68.8125 76.1841 69.9375C77.08 71.0625 77.8404 72.4688 78.4654 74.1562L77.1216 74.5C77.4758 73.8542 77.6946 73.2812 77.7779 72.7812C77.8821 72.2812 77.9341 71.7708 77.9341 71.25C77.9133 69.2708 77.5487 67.4062 76.8404 65.6562C76.1529 63.8854 75.2466 62.1771 74.1216 60.5312C72.9966 58.8854 71.7779 57.2708 70.4654 55.6875C70.0904 55.25 69.7987 54.7917 69.5904 54.3125C69.4029 53.8125 69.3091 53.3229 69.3091 52.8438C69.3091 51.6146 69.8196 50.6771 70.8404 50.0312C71.8821 49.3646 73.2571 49.0312 74.9654 49.0312C77.7362 49.0312 80.6737 49.375 83.7779 50.0625C86.8821 50.7292 89.9758 51.7708 93.0591 53.1875C96.1425 54.5833 99.0591 56.375 101.809 58.5625C104.58 60.75 107.038 63.3333 109.184 66.3125C111.33 69.2917 113.017 72.7083 114.247 76.5625C115.497 80.3958 116.122 84.6875 116.122 89.4375C116.122 93.7292 115.445 97.6458 114.09 101.188C112.757 104.708 110.83 107.729 108.309 110.25C105.788 112.792 102.788 114.75 99.3091 116.125C95.83 117.5 91.955 118.188 87.6841 118.188ZM88.4654 107.938C90.8612 107.938 92.8716 107.427 94.4966 106.406C96.1216 105.365 97.3508 103.979 98.1841 102.25C99.0175 100.521 99.4341 98.6042 99.4341 96.5C99.4341 94.3958 99.0383 92.3125 98.2466 90.25C97.455 88.1875 96.2883 86.3125 94.7466 84.625C93.2258 82.9167 91.3404 81.5625 89.0904 80.5625C88.8612 80.4583 88.6633 80.4688 88.4966 80.5938C88.33 80.6979 88.2779 80.8854 88.3404 81.1562C88.6321 83.4896 88.6529 85.6771 88.4029 87.7188C88.1737 89.7604 87.6633 91.4167 86.8716 92.6875C86.5175 91.75 86.1008 90.8958 85.6216 90.125C85.1633 89.3333 84.6008 88.6146 83.9341 87.9688C83.7258 87.8021 83.5279 87.7604 83.3404 87.8438C83.1737 87.9062 83.08 88.0521 83.0591 88.2812C82.955 89.2604 82.6737 90.1354 82.2154 90.9062C81.7779 91.6771 81.2987 92.4583 80.7779 93.25C80.2571 94.0208 79.7987 94.8854 79.4029 95.8438C79.0071 96.8021 78.8091 97.9479 78.8091 99.2812C78.8091 101.865 79.6946 103.958 81.4654 105.562C83.2362 107.146 85.5696 107.938 88.4654 107.938Z" fill="#FFA722"/>
<path d="M46.707 154.934C44.5977 154.934 42.7637 154.635 41.2051 154.037C39.6582 153.428 38.4453 152.555 37.5664 151.418C36.6992 150.281 36.2129 148.904 36.1074 147.287L36.0898 146.971H42.084L42.1191 147.146C42.2363 147.697 42.5059 148.178 42.9277 148.588C43.3613 148.986 43.9121 149.303 44.5801 149.537C45.248 149.76 45.9922 149.871 46.8125 149.871C47.668 149.871 48.4004 149.76 49.0098 149.537C49.6309 149.303 50.1113 148.986 50.4512 148.588C50.791 148.189 50.9609 147.727 50.9609 147.199V147.182C50.9609 146.467 50.6504 145.916 50.0293 145.529C49.4082 145.131 48.3535 144.791 46.8652 144.51L44.2637 144C41.7559 143.531 39.8457 142.688 38.5332 141.469C37.2324 140.238 36.582 138.65 36.582 136.705V136.688C36.582 135.059 37.0156 133.646 37.8828 132.451C38.75 131.244 39.9395 130.312 41.4512 129.656C42.9746 128.988 44.7031 128.654 46.6367 128.654C48.7578 128.654 50.5625 128.971 52.0508 129.604C53.5391 130.225 54.6875 131.104 55.4961 132.24C56.3164 133.377 56.7617 134.713 56.832 136.248L56.8496 136.617H50.8555L50.8379 136.424C50.7676 135.861 50.5508 135.381 50.1875 134.982C49.8242 134.584 49.3438 134.273 48.7461 134.051C48.1484 133.828 47.4629 133.717 46.6895 133.717C45.9043 133.717 45.2363 133.828 44.6855 134.051C44.1348 134.273 43.7129 134.578 43.4199 134.965C43.1387 135.34 42.998 135.768 42.998 136.248V136.266C42.998 136.945 43.3086 137.484 43.9297 137.883C44.5508 138.281 45.541 138.609 46.9004 138.867L49.502 139.359C51.3066 139.699 52.7891 140.18 53.9492 140.801C55.1094 141.422 55.9707 142.213 56.5332 143.174C57.0957 144.123 57.377 145.277 57.377 146.637V146.654C57.377 148.342 56.9551 149.807 56.1113 151.049C55.2676 152.291 54.0488 153.252 52.4551 153.932C50.8613 154.6 48.9453 154.934 46.707 154.934ZM67.8578 154.881C65.5492 154.881 63.8441 154.424 62.7426 153.51C61.6527 152.584 61.1078 151.043 61.1078 148.887V139.904H58.5063V135.334H61.1078V130.922H67.3656V135.334H70.7934V139.904H67.3656V148.043C67.3656 148.863 67.5531 149.449 67.9281 149.801C68.3031 150.141 68.8656 150.311 69.6156 150.311C69.8734 150.311 70.0902 150.305 70.266 150.293C70.4418 150.27 70.6176 150.246 70.7934 150.223V154.652C70.4535 154.711 70.0434 154.764 69.5629 154.811C69.0824 154.857 68.5141 154.881 67.8578 154.881ZM72.9598 154.477V135.334H79.2V138.727H79.323C79.5926 137.508 80.0906 136.57 80.8172 135.914C81.5555 135.258 82.493 134.93 83.6297 134.93C83.9227 134.93 84.2039 134.953 84.4734 135C84.7547 135.035 85.0125 135.094 85.2469 135.176V140.52C84.9891 140.402 84.6844 140.314 84.3328 140.256C83.993 140.197 83.6355 140.168 83.2605 140.168C82.3816 140.168 81.6375 140.326 81.0281 140.643C80.4305 140.959 79.9734 141.428 79.657 142.049C79.3523 142.658 79.2 143.414 79.2 144.316V154.477H72.9598ZM95.3762 154.881C93.3605 154.881 91.6262 154.482 90.173 153.686C88.7199 152.877 87.6008 151.729 86.8156 150.24C86.0422 148.752 85.6555 146.977 85.6555 144.914V144.896C85.6555 142.846 86.0422 141.076 86.8156 139.588C87.6008 138.1 88.7023 136.951 90.1203 136.143C91.55 135.334 93.2316 134.93 95.1652 134.93C97.0988 134.93 98.7746 135.328 100.193 136.125C101.611 136.91 102.706 138.023 103.48 139.465C104.253 140.895 104.64 142.576 104.64 144.51V146.338H88.7141V142.646H101.722L98.8215 146.109V143.701C98.8215 142.775 98.675 141.99 98.382 141.346C98.0891 140.689 97.6789 140.197 97.1516 139.869C96.6242 139.529 96.009 139.359 95.3059 139.359C94.6027 139.359 93.9816 139.529 93.4426 139.869C92.9152 140.209 92.5051 140.707 92.2121 141.363C91.9191 142.008 91.7727 142.787 91.7727 143.701V146.127C91.7727 147.029 91.9191 147.803 92.2121 148.447C92.5168 149.092 92.9445 149.59 93.4953 149.941C94.0578 150.281 94.7258 150.451 95.4992 150.451C96.1672 150.451 96.7355 150.346 97.2043 150.135C97.673 149.924 98.0422 149.666 98.3117 149.361C98.593 149.057 98.7805 148.77 98.8742 148.5L98.8918 148.43H104.517L104.464 148.641C104.323 149.309 104.054 150.006 103.655 150.732C103.257 151.447 102.7 152.121 101.986 152.754C101.282 153.387 100.386 153.902 99.2961 154.301C98.218 154.688 96.9113 154.881 95.3762 154.881ZM112.396 154.74C111.119 154.74 109.994 154.494 109.021 154.002C108.048 153.498 107.287 152.812 106.736 151.945C106.197 151.066 105.927 150.07 105.927 148.957V148.939C105.927 147.732 106.226 146.707 106.824 145.863C107.433 145.02 108.312 144.357 109.461 143.877C110.609 143.385 112.004 143.086 113.644 142.98L121.308 142.488V146.109L114.646 146.566C113.779 146.613 113.129 146.812 112.695 147.164C112.261 147.504 112.045 147.961 112.045 148.535V148.553C112.045 149.15 112.273 149.613 112.73 149.941C113.199 150.258 113.814 150.416 114.576 150.416C115.244 150.416 115.83 150.299 116.334 150.064C116.849 149.818 117.254 149.484 117.546 149.062C117.851 148.629 118.004 148.148 118.004 147.621V141.75C118.004 141.059 117.781 140.514 117.336 140.115C116.89 139.705 116.24 139.5 115.384 139.5C114.541 139.5 113.879 139.67 113.398 140.01C112.918 140.35 112.625 140.766 112.519 141.258L112.484 141.434H106.859L106.877 141.205C106.982 139.951 107.392 138.855 108.107 137.918C108.822 136.98 109.818 136.248 111.095 135.721C112.384 135.193 113.92 134.93 115.701 134.93C117.412 134.93 118.906 135.199 120.183 135.738C121.472 136.277 122.468 137.033 123.171 138.006C123.886 138.979 124.244 140.109 124.244 141.398V154.477H118.004V151.77H117.88C117.517 152.391 117.066 152.924 116.527 153.369C115.988 153.814 115.373 154.154 114.681 154.389C113.99 154.623 113.228 154.74 112.396 154.74ZM126.955 154.477V129.111H133.178V154.477H126.955ZM138.961 154.477L133.758 146.373L137.643 141.469L146.15 154.477H138.961ZM132.598 149.309V142.594H133.301L138.785 135.334H145.729L137.027 145.916H135.41L132.598 149.309Z" fill="#FF785A"/>
<ellipse cx="291" cy="85.3389" rx="66" ry="66.3389" fill="#FFE6DE"/>
<path d="M348.25 85.3389C348.25 117.187 322.576 142.928 291 142.928C259.424 142.928 233.75 117.187 233.75 85.3389C233.75 53.4911 259.424 27.75 291 27.75C322.576 27.75 348.25 53.4911 348.25 85.3389Z" stroke="#FF785A" stroke-opacity="0.7" stroke-width="17.5"/>
<path d="M283.819 117V67.7812H283.468L267.647 78.3721V64.5732L283.775 53.5869H299.859V117H283.819Z" fill="#FF785A"/>
</g>
<defs>
<clipPath id="clip0_846_5214">
<rect width="380" height="170.4" rx="22" fill="white"/>
</clipPath>
</defs>
</svg>
